<svg width="36" height="36" viewBox="0 0 36 36" fill="none" xmlns="http://www.w3.org/2000/svg">
<path d="M28.9806 15.0001H7.03564C4.81564 15.0001 3.01562 13.1852 3.01562 10.9802V7.03515C3.01562 4.81515 4.83064 3.01514 7.03564 3.01514H28.9806C31.2006 3.01514 33.0006 4.83015 33.0006 7.03515V10.9802C33.0006 13.1852 31.1856 15.0001 28.9806 15.0001Z" stroke="white" stroke-width="1.5" stroke-linecap="round" stroke-linejoin="round"/>
<path d="M28.9806 33.0001H7.03564C4.81564 33.0001 3.01562 31.1852 3.01562 28.9802V25.0351C3.01562 22.8151 4.83064 21.0151 7.03564 21.0151H28.9806C31.2006 21.0151 33.0006 22.8301 33.0006 25.0351V28.9802C33.0006 31.1852 31.1856 33.0001 28.9806 33.0001Z" stroke="white" stroke-width="1.5" stroke-linecap="round" stroke-linejoin="round"/>
<path d="M9 7.5V10.5" stroke="white" stroke-width="1.5" stroke-linecap="round" stroke-linejoin="round"/>
<path d="M15 7.5V10.5" stroke="white" stroke-width="1.5" stroke-linecap="round" stroke-linejoin="round"/>
<path d="M9 25.5V28.5" stroke="white" stroke-width="1.5" stroke-linecap="round" stroke-linejoin="round"/>
<path d="M15 25.5V28.5" stroke="white" stroke-width="1.5" stroke-linecap="round" stroke-linejoin="round"/>
<path d="M21 9H27" stroke="white" stroke-width="1.5" stroke-linecap="round" stroke-linejoin="round"/>
<path d="M21 27H27" stroke="white" stroke-width="1.5" stroke-linecap="round" stroke-linejoin="round"/>
</svg>
