<svg width="36" height="36" viewBox="0 0 36 36" fill="none" xmlns="http://www.w3.org/2000/svg">
<path d="M18.0299 4.36499C13.0649 4.36499 9.02989 8.39999 9.02989 13.365V17.7C9.02989 18.615 8.63989 20.01 8.17489 20.79L6.44989 23.655C5.38489 25.425 6.11989 27.39 8.06989 28.05C14.5349 30.21 21.5099 30.21 27.9749 28.05C29.7899 27.45 30.5849 25.305 29.5949 23.655L27.8699 20.79C27.4199 20.01 27.0299 18.615 27.0299 17.7V13.365C27.0299 8.41499 22.9799 4.36499 18.0299 4.36499Z" stroke="white" stroke-width="1.8" stroke-miterlimit="10" stroke-linecap="round"/>
<path d="M20.8078 4.80016C20.3428 4.66516 19.8628 4.56016 19.3678 4.50016C17.9278 4.32016 16.5478 4.42516 15.2578 4.80016C15.6928 3.69016 16.7728 2.91016 18.0328 2.91016C19.2928 2.91016 20.3728 3.69016 20.8078 4.80016Z" stroke="white" stroke-width="1.8" stroke-miterlimit="10" stroke-linecap="round" stroke-linejoin="round"/>
<path d="M22.5273 28.5898C22.5273 31.0648 20.5023 33.0898 18.0273 33.0898C16.7973 33.0898 15.6573 32.5798 14.8473 31.7698C14.0373 30.9598 13.5273 29.8198 13.5273 28.5898" stroke="white" stroke-width="1.8" stroke-miterlimit="10"/>
</svg>
