<svg width="36" height="36" viewBox="0 0 36 36" fill="none" xmlns="http://www.w3.org/2000/svg">
<path d="M33 19.5V13.5C33 6 30 3 22.5 3H13.5C6 3 3 6 3 13.5V22.5C3 30 6 33 13.5 33H19.5" stroke="white" stroke-width="1.5" stroke-linecap="round" stroke-linejoin="round"/>
<path d="M10.9922 21.7352L14.5622 17.1001C15.0722 16.4401 16.0172 16.3201 16.6772 16.8301L19.4222 18.9902C20.0822 19.5002 21.0272 19.3802 21.5372 18.7352L25.0022 14.2651" stroke="white" stroke-width="1.5" stroke-linecap="round" stroke-linejoin="round"/>
<path d="M29.2237 23.7299L29.6437 24.5849C29.8537 25.0049 30.3787 25.3949 30.8437 25.4849L31.4137 25.5749C33.1237 25.8599 33.5287 27.1199 32.2987 28.3649L31.7737 28.8899C31.4287 29.2499 31.2338 29.9399 31.3388 30.4199L31.4137 30.7349C31.8787 32.8049 30.7837 33.5999 28.9837 32.5199L28.5937 32.2949C28.1287 32.0249 27.3787 32.0249 26.9137 32.2949L26.5237 32.5199C24.7087 33.6149 23.6137 32.8049 24.0937 30.7349L24.1687 30.4199C24.2737 29.9399 24.0787 29.2499 23.7337 28.8899L23.2087 28.3649C21.9787 27.1199 22.3837 25.8599 24.0937 25.5749L24.6637 25.4849C25.1137 25.4099 25.6537 25.0049 25.8637 24.5849L26.2837 23.7299C27.0937 22.0949 28.4137 22.0949 29.2237 23.7299Z" stroke="white" stroke-width="1.5" stroke-linecap="round" stroke-linejoin="round"/>
</svg>
