<svg width="56" height="56" viewBox="0 0 56 56" fill="none" xmlns="http://www.w3.org/2000/svg">
<g clip-path="url(#clip0_2835_10784)">
<path d="M44.2168 34.499C43.1178 32.2077 39.1861 29.0273 35.3875 25.9543C33.2688 24.2415 31.2668 22.6223 29.9905 21.346C29.6708 21.024 29.1925 20.9213 28.7702 21.073C27.9839 21.3577 27.4985 21.577 27.1159 21.7473C26.5326 22.0085 26.3366 22.0973 25.5502 22.1765C25.2025 22.2115 24.8899 22.3983 24.6962 22.6875C23.0465 25.1538 21.3385 24.9438 20.1975 24.5613C19.8335 24.44 19.7682 24.2835 19.7332 24.1343C19.4882 23.11 20.7179 20.7253 22.3115 19.1315C26.1032 15.3375 28.0585 14.3878 32.1885 16.2335C36.8738 18.3288 41.5685 19.9693 41.6152 19.9855C42.2289 20.1978 42.8892 19.8758 43.1015 19.2668C43.3115 18.6578 42.9918 17.9928 42.3828 17.7805C42.3361 17.7643 37.7348 16.1565 33.1428 14.1008C27.7925 11.7091 24.8571 13.2841 20.6641 17.4795C19.0681 19.0755 16.9004 22.3048 17.4604 24.6733C17.7007 25.6813 18.4101 26.428 19.4647 26.7755C22.1084 27.6483 24.521 26.8128 26.3177 24.4283C27.0597 24.314 27.4634 24.146 28.07 23.873C28.2892 23.775 28.5459 23.6607 28.8867 23.523C30.2214 24.776 32.0227 26.2343 33.9197 27.7673C37.3497 30.5415 41.2394 33.687 42.1144 35.507C42.5461 36.4053 42.0817 36.991 41.7667 37.2593C41.3047 37.656 40.6724 37.782 40.3294 37.5415C39.9514 37.2825 39.4591 37.2663 39.0694 37.4995C38.6774 37.7328 38.4581 38.1738 38.5071 38.6265C38.5864 39.3685 37.9074 39.7933 37.6134 39.9403C36.8667 40.3183 36.0874 40.253 35.7957 39.9823C35.469 39.679 35 39.5903 34.5847 39.7443C34.1694 39.9005 33.88 40.2833 33.838 40.7265C33.768 41.4918 33.201 42.2268 32.4612 42.5138C32.1042 42.6491 31.5862 42.7308 31.122 42.3061C30.8327 42.0448 30.4312 41.9444 30.0557 42.0354C29.6754 42.1287 29.3697 42.4041 29.2367 42.7704C29.1924 42.8871 29.092 43.1671 28 43.1671C27.2229 43.1671 25.8252 42.6421 25.1417 42.1894C24.3227 41.6504 19.187 37.8191 14.7514 34.1044C14.1284 33.5794 13.0504 32.4547 12.0984 31.4607C11.2537 30.5787 10.4814 29.7784 10.0847 29.4424C9.58765 29.0224 8.85265 29.0854 8.43965 29.5801C8.02436 30.0724 8.08495 30.8098 8.57736 31.2251C8.93906 31.5308 9.63906 32.2704 10.4114 33.0754C11.4521 34.1627 12.5277 35.2874 13.2511 35.8941C17.5958 39.5318 22.8178 43.4588 23.8584 44.1424C24.7171 44.7071 26.5674 45.5004 28.0001 45.5004C29.1504 45.5004 30.0348 45.2367 30.6484 44.7211C31.4697 45.0408 32.4031 45.0431 33.3014 44.6931C34.3631 44.2824 35.2357 43.4541 35.7304 42.4508C36.6497 42.6468 37.7021 42.5091 38.6587 42.0286C39.5944 41.5573 40.271 40.8363 40.607 39.9938C41.5357 40.0428 42.4922 39.7138 43.2832 39.0348C44.6228 37.8893 44.9914 36.1067 44.2168 34.499Z" fill="#292D32"/>
<path d="M23.3308 15.1663H12.8308C12.1868 15.1663 11.6641 15.689 11.6641 16.333C11.6641 16.977 12.1868 17.4997 12.8308 17.4997H23.3308C23.9748 17.4997 24.4975 16.977 24.4975 16.333C24.4975 15.689 23.9748 15.1663 23.3308 15.1663Z" fill="#292D32"/>
<path d="M47.6401 32.0153C47.2784 31.481 46.5551 31.334 46.0208 31.698L42.6095 33.9893C42.0752 34.3486 41.9328 35.0743 42.2922 35.6086C42.5185 35.9423 42.8872 36.1243 43.2629 36.1243C43.4846 36.1243 43.7109 36.0613 43.9116 35.926L47.3229 33.6347C47.8571 33.2753 47.9994 32.5497 47.6401 32.0153Z" fill="#292D32"/>
<path d="M40.3906 37.5821C39.5553 36.9241 35.8196 33.0998 33.5096 30.6918C33.0639 30.2251 32.3243 30.2088 31.8599 30.6568C31.3932 31.1025 31.3792 31.8421 31.8249 32.3065C32.4246 32.9318 37.7142 38.4455 38.9439 39.4162C39.1562 39.5842 39.4129 39.6659 39.6649 39.6659C40.0079 39.6659 40.3509 39.5119 40.5842 39.2202C40.9833 38.7161 40.897 37.9811 40.3906 37.5821Z" fill="#292D32"/>
<path d="M35.7297 39.923C34.332 38.8053 30.8204 35.0743 30.027 34.211C29.5883 33.735 28.8533 33.707 28.3773 34.141C27.9036 34.5773 27.871 35.317 28.3073 35.7907C28.3493 35.835 32.54 40.3594 34.2713 41.7454C34.486 41.9157 34.745 41.9997 34.9993 41.9997C35.34 41.9997 35.6806 41.848 35.9116 41.5634C36.3131 41.0593 36.2314 40.3243 35.7297 39.923Z" fill="#292D32"/>
<path d="M31.0885 42.2728C29.4248 40.8705 26.0205 37.2468 25.3555 36.5351C24.9145 36.0638 24.1748 36.0381 23.7058 36.4791C23.2345 36.9201 23.2111 37.6574 23.6498 38.1288C24.6065 39.1531 27.8638 42.6065 29.5835 44.0578C29.8028 44.2421 30.0688 44.3331 30.3348 44.3331C30.6661 44.3331 30.9975 44.1908 31.2285 43.9178C31.6438 43.4231 31.5808 42.6881 31.0885 42.2728Z" fill="#292D32"/>
<path d="M13.636 13.1528C11.6363 11.2581 3.64 10.6444 1.2367 10.5021C0.905406 10.4858 0.599703 10.5954 0.366406 10.8171C0.133 11.0364 0 11.3444 0 11.6664V32.6664C0 33.3104 0.522703 33.8331 1.1667 33.8331H8.1667C8.6707 33.8331 9.1187 33.5088 9.275 33.0281C9.4453 32.5054 13.4657 20.1668 13.9953 14.1001C14.0257 13.7454 13.895 13.3954 13.636 13.1528ZM7.315 31.4998H2.3333V12.9171C6.083 13.2134 10.129 13.8574 11.599 14.5714C10.9807 19.6814 8.183 28.7604 7.315 31.4998Z" fill="#292D32"/>
<path d="M54.8282 12.8333C45.6675 12.8333 40.5855 15.1783 40.3732 15.2763C40.0699 15.4185 39.8435 15.6823 39.7502 16.002C39.6569 16.3217 39.7035 16.6647 39.8785 16.9493C41.3205 19.271 45.8355 32.165 46.7035 35.3103C46.8435 35.8165 47.3032 36.1665 47.8282 36.1665H54.8282C55.4722 36.1665 55.9949 35.6438 55.9949 34.9998V13.9998C55.9949 13.3535 55.4722 12.8333 54.8282 12.8333ZM53.6616 33.8332H48.7009C47.5949 30.2305 44.3282 20.8365 42.5059 16.954C44.2862 16.3497 48.1106 15.3113 53.6616 15.1807V33.8332Z" fill="#292D32"/>
</g>
<defs>
<clipPath id="clip0_2835_10784">
<rect width="56" height="56" fill="white"/>
</clipPath>
</defs>
</svg>
