<svg width="56" height="56" viewBox="0 0 56 56" fill="none" xmlns="http://www.w3.org/2000/svg">
<g clip-path="url(#clip0_2834_10490)">
<path d="M0.61068 40.3112L5.82355 38.4138C6.30389 38.24 6.83389 38.4883 7.00769 38.9686L7.32416 39.8367L13.3632 37.6346C13.5149 37.5777 13.6792 37.5637 13.8386 37.593L26.4032 39.8119C27.5422 40.0146 28.5205 40.7378 29.0496 41.7662L34.8133 39.6638C35.7338 39.3252 36.7522 39.3704 37.6393 39.7889C38.7666 40.3148 39.5544 41.3703 39.7381 42.6005C39.9683 44.381 38.9138 46.078 37.215 46.6599L18.2293 53.5702C18.1282 53.6077 18.0208 53.6271 17.9129 53.6267C17.8122 53.6267 17.7124 53.61 17.6172 53.5779L12.3149 51.7879L11.7506 51.9929L12.0671 52.8619C12.2409 53.3422 11.9926 53.8727 11.5122 54.0465L6.29847 55.9435C6.1978 55.981 6.0908 56.0004 5.98336 55.9999C5.59466 56.0004 5.24705 55.757 5.11432 55.3918L0.0549469 41.4899C-0.11525 41.011 0.133045 40.4846 0.61068 40.3112ZM12.5998 49.9347L17.902 51.7247L36.5829 44.9246C37.447 44.637 37.9982 43.7901 37.9106 42.8831C37.8325 42.3305 37.5093 41.843 37.0308 41.5554C36.5522 41.2683 35.9699 41.2128 35.4457 41.4042L29.4469 43.5869C29.4437 43.7576 29.4302 43.9278 29.4054 44.0961C29.0429 46.1015 27.1323 47.4405 25.1238 47.0965L14.7148 45.2613L15.0367 43.4397L25.4408 45.2753C26.4425 45.4455 27.396 44.781 27.5829 43.7819C27.6213 43.5711 27.6199 43.3544 27.5784 43.144C27.5716 43.1133 27.5662 43.0826 27.5626 43.0515C27.5504 42.9725 27.5292 42.8953 27.4989 42.8213C27.2718 42.2005 26.7319 41.7477 26.0814 41.6312L13.7627 39.4589L7.95618 41.5712L11.1186 50.262L11.9876 49.9469C12.1844 49.8738 12.4002 49.8693 12.5998 49.9347ZM6.53999 53.893L10.0152 52.6281L5.58879 40.4647L2.1131 41.7292L6.53999 53.893Z" fill="#292D32"/>
<path d="M34.2844 14.9141C33.986 16.0066 33.4357 17.0142 32.6777 17.8552C32.6917 17.9293 32.7017 18.0038 32.7062 18.0792V23.1141C32.7062 24.6459 31.4647 25.8878 29.9325 25.8878V35.1335C29.9347 35.4856 29.7361 35.8084 29.4215 35.9655L27.5723 36.8901C27.3118 37.0201 27.0058 37.0201 26.7457 36.8901L24.8966 35.9655C24.5815 35.8084 24.3833 35.4856 24.3851 35.1335V25.8878C22.8533 25.8878 21.6114 24.6459 21.6114 23.1141V18.0792C21.6164 17.9983 21.6268 17.918 21.6421 17.8385C21.0245 17.1591 20.5433 16.3673 20.2246 15.5059C18.8594 15.7352 17.4928 15.1082 16.776 13.924C15.897 12.4699 16.1376 10.6014 17.3565 9.41767L24.8808 1.8952C26.0916 0.678097 27.7394 -0.00449223 29.4567 2.22515e-05H39.1781C39.3036 -0.000429196 39.4273 0.0253033 39.5425 0.0749626L45.8352 2.77372H46.5747V0.924587C46.5747 0.414 46.9886 2.22515e-05 47.4992 2.22515e-05H54.8957C55.4063 2.22515e-05 55.8203 0.414 55.8203 0.924587V15.7176C55.8203 16.2282 55.4063 16.6422 54.8957 16.6422H47.4992C46.9886 16.6422 46.5747 16.2282 46.5747 15.7176V13.8685H46.4397C45.7779 16.0874 42.8046 17.5668 40.1027 17.5668C37.8613 17.6128 35.7201 16.6368 34.2844 14.9141ZM48.4238 14.7931H53.9712V1.84915H48.4238V14.7931ZM26.2342 34.562L27.1588 35.0242L28.0834 34.562V25.8878H26.2342V34.562ZM23.4605 23.1141C23.4605 23.6247 23.8745 24.0387 24.3851 24.0387H29.9325C30.4431 24.0387 30.8571 23.6247 30.8571 23.1141V19.34C30.2354 19.7021 29.5632 19.9703 28.863 20.135C28.5434 20.9129 27.7421 21.3797 26.9082 21.274C26.074 21.1689 25.414 20.5174 25.2979 19.6845C25.1819 18.852 25.6388 18.0448 26.4121 17.7153C27.1859 17.3862 28.0843 17.616 28.6039 18.2769C29.1253 18.1401 29.6242 17.9275 30.0833 17.6453C29.1921 17.1049 28.1944 16.7627 27.1588 16.6422C25.8315 16.8286 24.5657 17.3207 23.4605 18.0792V23.1141ZM22.7721 16.3397C24.0939 15.4896 25.5959 14.9601 27.1588 14.7931C28.719 14.9592 30.2187 15.4878 31.5387 16.3361C32.1026 15.6183 32.4759 14.7696 32.624 13.8685H28.0834C26.729 13.882 25.4812 13.1353 24.8533 11.9354L22.2642 14.524C22.1608 14.6206 22.0516 14.7104 21.9369 14.7931C22.1274 15.3515 22.4096 15.8743 22.7721 16.3397ZM24.4289 9.74407C24.5151 8.98744 24.8356 8.27641 25.3449 7.70985C23.2538 8.43623 21.7942 10.3359 21.6317 12.5435L24.4289 9.74407ZM35.4799 12.9439C35.4799 14.3439 37.7701 15.7176 40.1027 15.7176C42.4353 15.7176 44.7255 14.3439 44.7255 12.9439C44.7255 12.4333 45.1395 12.0194 45.6501 12.0194H46.5747V4.62285H45.6501C45.525 4.6233 45.4009 4.59757 45.2858 4.54791L38.9935 1.84915H29.4612C28.2332 1.84464 27.0541 2.3322 26.1882 3.20259L18.6657 10.7251C18.0576 11.293 17.9208 12.2049 18.3357 12.9263C18.6445 13.4152 19.1844 13.7087 19.7623 13.7019C19.7772 13.7019 19.7912 13.7019 19.8061 13.7019C19.7781 13.4505 19.7636 13.1972 19.7623 12.9439C19.7668 8.86104 23.0759 5.55193 27.1588 5.54741C28.4012 5.54922 29.6228 5.86749 30.7085 6.47198H38.2536V8.32111H28.0834C27.0622 8.32111 26.2342 9.14906 26.2342 10.1702C26.2342 11.1914 27.0622 12.0194 28.0834 12.0194H34.5553C35.0659 12.0194 35.4799 12.4333 35.4799 12.9439Z" fill="#292D32"/>
</g>
<defs>
<clipPath id="clip0_2834_10490">
<rect width="56" height="56" fill="white" transform="matrix(-1 0 0 1 56 0)"/>
</clipPath>
</defs>
</svg>
