<svg width="48" height="48" viewBox="0 0 48 48" fill="none" xmlns="http://www.w3.org/2000/svg">
<path d="M6.70361 4H24.5037C25.9837 4 27.2036 5.22001 27.2036 6.70001V9.65997C27.2036 10.74 26.5236 12.08 25.8636 12.76L20.0637 17.88C19.2637 18.56 18.7236 19.9 18.7236 20.98V26.78C18.7236 27.58 18.1837 28.66 17.5037 29.08L15.6237 30.3C13.8637 31.38 11.4436 30.16 11.4436 28V20.86C11.4436 19.92 10.9036 18.7 10.3636 18.02L5.24365 12.62C4.56365 11.94 4.02368 10.74 4.02368 9.91998V6.82001C4.00368 5.22001 5.22361 4 6.70361 4Z" stroke="#333333" stroke-width="2.4" stroke-miterlimit="10" stroke-linecap="round" stroke-linejoin="round"/>
<path d="M4 24V30C4 40 8 44 18 44H30C40 44 44 40 44 30V18C44 11.76 42.4399 7.83999 38.8199 5.79999C37.7999 5.21999 35.76 4.77998 33.9 4.47998" stroke="#333333" stroke-width="2.4" stroke-linecap="round" stroke-linejoin="round"/>
<path d="M26 26H36" stroke="#333333" stroke-width="2.4" stroke-linecap="round" stroke-linejoin="round"/>
<path d="M22 34H36" stroke="#333333" stroke-width="2.4" stroke-linecap="round" stroke-linejoin="round"/>
</svg>
