<svg width="49" height="48" viewBox="0 0 49 48" fill="none" xmlns="http://www.w3.org/2000/svg">
<path d="M8.90234 42H10.9023M10.9023 42V13.68C10.9023 10.9917 10.9023 9.64762 11.4255 8.62085C11.8857 7.71767 12.62 6.98336 13.5232 6.52317C14.55 6 15.8941 6 18.5823 6H31.2223C33.9106 6 35.2547 6 36.2815 6.52317C37.1847 6.98336 37.919 7.71767 38.3792 8.62085C38.9023 9.64762 38.9023 10.9917 38.9023 13.68V42M10.9023 42H20.9023M38.9023 42H28.9023M38.9023 42H40.9023M20.9023 42V33.84C20.9023 32.4959 20.9023 31.8238 21.1639 31.3104C21.394 30.8588 21.7612 30.4917 22.2128 30.2616C22.7262 30 23.3982 30 24.7423 30H25.0623C26.4065 30 27.0785 30 27.5919 30.2616C28.0435 30.4917 28.4107 30.8588 28.6408 31.3104C28.9023 31.8238 28.9023 32.4959 28.9023 33.84V42M20.9023 42H28.9023" stroke="#272D3B" stroke-width="2.4" stroke-linecap="round"/>
<path d="M18.9062 14H30.9062" stroke="#272D3B" stroke-width="2.4" stroke-linecap="round"/>
<path d="M18.9062 22H30.9062" stroke="#272D3B" stroke-width="2.4" stroke-linecap="round"/>
</svg>
