<svg width="45" height="45" viewBox="0 0 45 45" fill="none" xmlns="http://www.w3.org/2000/svg">
<path d="M31.5 41.25L31.5 40.25L31.5 41.25ZM7.5 35.25L8.5 35.25L7.5 35.25ZM7.5 9.75L6.5 9.75L7.5 9.75ZM7.90873 5.79753L7.01772 5.34354L7.90873 5.79753ZM13.5 3.75L13.5 4.75L13.5 3.75ZM9.54754 4.15872L9.09355 3.26772L9.09355 3.26772L9.54754 4.15872ZM9.54753 40.8413L9.09354 41.7323V41.7323L9.54753 40.8413ZM7.90872 39.2025L8.79973 38.7485L8.79973 38.7485L7.90872 39.2025ZM35.4525 40.8413L34.9985 39.9503L35.4525 40.8413ZM37.5 35.25L38.5 35.25L37.5 35.25ZM37.0913 39.2025L36.2003 38.7485L36.2003 38.7485L37.0913 39.2025ZM38.5 15C38.5 14.4477 38.0523 14 37.5 14C36.9477 14 36.5 14.4477 36.5 15L38.5 15ZM26.25 4.75C26.8023 4.75 27.25 4.30229 27.25 3.75C27.25 3.19772 26.8023 2.75 26.25 2.75L26.25 4.75ZM37.1799 14.6799L36.4728 15.387L37.1799 14.6799ZM26.5701 4.07008L27.2772 3.36298L26.5701 4.07008ZM37.0473 15L37.0473 14L37.0473 14L37.0473 15ZM28.125 15L28.125 16L28.125 16L28.125 15ZM26.25 13.125L27.25 13.125L26.25 13.125ZM26.25 4.20267L25.25 4.20267L26.25 4.20267ZM15 21.5C14.4477 21.5 14 21.9477 14 22.5C14 23.0523 14.4477 23.5 15 23.5L15 21.5ZM30 23.5C30.5523 23.5 31 23.0523 31 22.5C31 21.9477 30.5523 21.5 30 21.5L30 23.5ZM15 14C14.4477 14 14 14.4477 14 15C14 15.5523 14.4477 16 15 16L15 14ZM18.75 16C19.3023 16 19.75 15.5523 19.75 15C19.75 14.4477 19.3023 14 18.75 14L18.75 16ZM15 29C14.4477 29 14 29.4477 14 30C14 30.5523 14.4477 31 15 31L15 29ZM30 31C30.5523 31 31 30.5523 31 30C31 29.4477 30.5523 29 30 29L30 31ZM31.5 40.25L13.5 40.25L13.5 42.25L31.5 42.25L31.5 40.25ZM8.5 35.25L8.5 9.75L6.5 9.75L6.5 35.25L8.5 35.25ZM8.5 9.75C8.5 8.6834 8.50078 7.94359 8.54777 7.36844C8.59381 6.80496 8.67917 6.48814 8.79973 6.25152L7.01772 5.34354C6.72956 5.90909 6.61056 6.51841 6.55441 7.20558C6.49922 7.88106 6.5 8.7164 6.5 9.75L8.5 9.75ZM13.5 2.75C12.4664 2.75 11.6311 2.74922 10.9556 2.80441C10.2684 2.86056 9.6591 2.97955 9.09355 3.26772L10.0015 5.04973C10.2381 4.92917 10.555 4.84381 11.1184 4.79777C11.6936 4.75078 12.4334 4.75 13.5 4.75L13.5 2.75ZM8.79973 6.25152C9.06338 5.73408 9.48408 5.31339 10.0015 5.04973L9.09355 3.26772C8.19978 3.72312 7.47312 4.44977 7.01772 5.34354L8.79973 6.25152ZM13.5 40.25C12.4334 40.25 11.6936 40.2492 11.1184 40.2022C10.555 40.1562 10.2381 40.0708 10.0015 39.9503L9.09354 41.7323C9.65909 42.0204 10.2684 42.1394 10.9556 42.1956C11.6311 42.2508 12.4664 42.25 13.5 42.25L13.5 40.25ZM6.5 35.25C6.5 36.2836 6.49922 37.1189 6.55441 37.7944C6.61055 38.4816 6.72955 39.0909 7.01772 39.6565L8.79973 38.7485C8.67917 38.5119 8.59381 38.195 8.54777 37.6316C8.50077 37.0564 8.5 36.3166 8.5 35.25L6.5 35.25ZM10.0015 39.9503C9.48408 39.6866 9.06338 39.2659 8.79973 38.7485L7.01772 39.6565C7.47311 40.5502 8.19977 41.2769 9.09354 41.7323L10.0015 39.9503ZM31.5 42.25C32.5336 42.25 33.3689 42.2508 34.0444 42.1956C34.7316 42.1394 35.3409 42.0204 35.9065 41.7323L34.9985 39.9503C34.7619 40.0708 34.445 40.1562 33.8816 40.2022C33.3064 40.2492 32.5666 40.25 31.5 40.25L31.5 42.25ZM36.5 35.25C36.5 36.3166 36.4992 37.0564 36.4522 37.6316C36.4062 38.195 36.3208 38.5119 36.2003 38.7485L37.9823 39.6565C38.2704 39.0909 38.3894 38.4816 38.4456 37.7944C38.5008 37.1189 38.5 36.2836 38.5 35.25L36.5 35.25ZM35.9065 41.7323C36.8002 41.2769 37.5269 40.5502 37.9823 39.6565L36.2003 38.7485C35.9366 39.2659 35.5159 39.6866 34.9985 39.9503L35.9065 41.7323ZM36.5 15L36.5 35.25L38.5 35.25L38.5 15L36.5 15ZM13.5 4.75L26.25 4.75L26.25 2.75L13.5 2.75L13.5 4.75ZM37.887 13.9728L27.2772 3.36298L25.863 4.77719L36.4728 15.387L37.887 13.9728ZM37.0473 14L28.125 14L28.125 16L37.0473 16L37.0473 14ZM27.25 13.125L27.25 4.20267L25.25 4.20267L25.25 13.125L27.25 13.125ZM28.125 14C27.6417 14 27.25 13.6083 27.25 13.125L25.25 13.125C25.25 14.7128 26.5372 16 28.125 16L28.125 14ZM27.2772 3.36298C26.5291 2.61489 25.25 3.14472 25.25 4.20267L27.25 4.20267C27.25 4.92652 26.3748 5.28904 25.863 4.77719L27.2772 3.36298ZM36.4728 15.387C35.961 14.8752 36.3235 14 37.0473 14L37.0473 16C38.1053 16 38.6351 14.7209 37.887 13.9728L36.4728 15.387ZM15 23.5L30 23.5L30 21.5L15 21.5L15 23.5ZM15 16L18.75 16L18.75 14L15 14L15 16ZM15 31L30 31L30 29L15 29L15 31Z" fill="#272D3B"/>
</svg>
