<svg width="48" height="48" viewBox="0 0 48 48" fill="none" xmlns="http://www.w3.org/2000/svg">
<path d="M16 26.5C15.1716 26.5 14.5 27.1716 14.5 28C14.5 28.8284 15.1716 29.5 16 29.5V26.5ZM20 29.5C20.8284 29.5 21.5 28.8284 21.5 28C21.5 27.1716 20.8284 26.5 20 26.5V29.5ZM16 18.5C15.1716 18.5 14.5 19.1716 14.5 20C14.5 20.8284 15.1716 21.5 16 21.5V18.5ZM28 21.5C28.8284 21.5 29.5 20.8284 29.5 20C29.5 19.1716 28.8284 18.5 28 18.5V21.5ZM16 10.5C15.1716 10.5 14.5 11.1716 14.5 12C14.5 12.8284 15.1716 13.5 16 13.5V10.5ZM28 13.5C28.8284 13.5 29.5 12.8284 29.5 12C29.5 11.1716 28.8284 10.5 28 10.5V13.5ZM34.5 23C34.5 23.8284 35.1716 24.5 36 24.5C36.8284 24.5 37.5 23.8284 37.5 23H34.5ZM20 41.5C20.8284 41.5 21.5 40.8284 21.5 40C21.5 39.1716 20.8284 38.5 20 38.5V41.5ZM10.1561 39.5497L10.8476 38.2185H10.8476L10.1561 39.5497ZM8.45035 37.8439L7.11923 38.5354L7.11923 38.5354L8.45035 37.8439ZM33.8439 4.45035L33.1524 5.78147V5.78147L33.8439 4.45035ZM35.5497 6.1561L34.2185 6.84756L34.2185 6.84756L35.5497 6.1561ZM10.1561 4.45035L9.46464 3.11923H9.46464L10.1561 4.45035ZM8.45035 6.1561L7.11923 5.46464V5.46464L8.45035 6.1561ZM41.0607 33.0607C41.6464 32.4749 41.6464 31.5251 41.0607 30.9393C40.4749 30.3536 39.5251 30.3536 38.9393 30.9393L41.0607 33.0607ZM31.2929 39.2929L30.2322 40.3536L31.2929 39.2929ZM29.0607 34.9393C28.4749 34.3536 27.5251 34.3536 26.9393 34.9393C26.3536 35.5251 26.3536 36.4749 26.9393 37.0607L29.0607 34.9393ZM16 29.5H20V26.5H16V29.5ZM16 21.5H28V18.5H16V21.5ZM16 13.5H28V10.5H16V13.5ZM14.44 5.5H29.56V2.5H14.44V5.5ZM34.5 10.44V23H37.5V10.44H34.5ZM20 38.5H14.44V41.5H20V38.5ZM9.5 33.56V10.44H6.5V33.56H9.5ZM14.44 38.5C13.2758 38.5 12.4944 38.4988 11.8931 38.4489C11.3096 38.4004 11.0312 38.3139 10.8476 38.2185L9.46464 40.8808C10.1479 41.2357 10.8725 41.3744 11.6448 41.4386C12.3991 41.5012 13.3262 41.5 14.44 41.5V38.5ZM6.5 33.56C6.5 34.6738 6.49879 35.6009 6.56144 36.3552C6.62557 37.1275 6.7643 37.8521 7.11923 38.5354L9.78147 37.1524C9.68605 36.9688 9.5996 36.6904 9.55115 36.1069C9.50121 35.5056 9.5 34.7242 9.5 33.56H6.5ZM10.8476 38.2185C10.391 37.9813 10.0187 37.609 9.78147 37.1524L7.11923 38.5354C7.64104 39.5399 8.4601 40.359 9.46464 40.8808L10.8476 38.2185ZM29.56 5.5C30.7242 5.5 31.5056 5.50121 32.1069 5.55115C32.6904 5.5996 32.9688 5.68605 33.1524 5.78147L34.5354 3.11923C33.8521 2.7643 33.1275 2.62557 32.3552 2.56144C31.6009 2.49879 30.6738 2.5 29.56 2.5V5.5ZM37.5 10.44C37.5 9.3262 37.5012 8.39912 37.4386 7.64478C37.3744 6.87249 37.2357 6.14791 36.8808 5.46464L34.2185 6.84756C34.3139 7.03125 34.4004 7.30964 34.4489 7.89306C34.4988 8.49444 34.5 9.27584 34.5 10.44H37.5ZM33.1524 5.78147C33.609 6.01866 33.9813 6.39096 34.2185 6.84756L36.8808 5.46464C36.359 4.4601 35.5399 3.64104 34.5354 3.11923L33.1524 5.78147ZM14.44 2.5C13.3262 2.5 12.3991 2.49879 11.6448 2.56144C10.8725 2.62557 10.1479 2.7643 9.46464 3.11923L10.8476 5.78147C11.0312 5.68605 11.3096 5.5996 11.8931 5.55115C12.4944 5.50121 13.2758 5.5 14.44 5.5V2.5ZM9.5 10.44C9.5 9.27584 9.50121 8.49445 9.55115 7.89306C9.5996 7.30964 9.68605 7.03125 9.78147 6.84756L7.11923 5.46464C6.7643 6.14791 6.62557 6.87249 6.56144 7.64478C6.49879 8.39912 6.5 9.3262 6.5 10.44H9.5ZM9.46464 3.11923C8.4601 3.64104 7.64104 4.4601 7.11923 5.46464L9.78147 6.84756C10.0187 6.39096 10.391 6.01866 10.8476 5.78147L9.46464 3.11923ZM33.7678 40.3536L41.0607 33.0607L38.9393 30.9393L31.6464 38.2322L33.7678 40.3536ZM32.3536 38.2322L29.0607 34.9393L26.9393 37.0607L30.2322 40.3536L32.3536 38.2322ZM31.6464 38.2322C31.8417 38.037 32.1583 38.037 32.3536 38.2322L30.2322 40.3536C31.2085 41.3299 32.7915 41.3299 33.7678 40.3536L31.6464 38.2322Z" fill="#272D3B"/>
</svg>
