<svg width="24" height="24" viewBox="0 0 24 24" fill="none" xmlns="http://www.w3.org/2000/svg">
<g clip-path="url(#clip0_2988_10373)">
<path d="M0.260603 17.2763L2.49469 16.4631C2.70055 16.3886 2.92769 16.495 3.00218 16.7009L3.13781 17.073L5.72596 16.1292C5.79097 16.1048 5.86139 16.0988 5.92969 16.1114L11.3146 17.0623C11.8027 17.1492 12.222 17.4591 12.4487 17.8999L14.9189 16.9989C15.3134 16.8537 15.7498 16.8731 16.13 17.0524C16.6131 17.2779 16.9508 17.7302 17.0295 18.2574C17.1282 19.0205 16.6762 19.7478 15.9482 19.9972L7.81145 22.9587C7.76812 22.9748 7.72207 22.9831 7.67583 22.9829C7.63268 22.9829 7.58992 22.9758 7.5491 22.962L5.2767 22.1949L5.03486 22.2827L5.17048 22.6552C5.24497 22.861 5.13856 23.0884 4.9327 23.1629L2.69823 23.9759C2.65508 23.9919 2.60923 24.0002 2.56318 24C2.3966 24.0002 2.24762 23.8959 2.19074 23.7394L0.0224323 17.7815C-0.0505085 17.5762 0.0559044 17.3506 0.260603 17.2763ZM5.39879 21.4007L7.67118 22.1678L15.6773 19.2535C16.0476 19.1302 16.2838 18.7672 16.2463 18.3785C16.2128 18.1417 16.0743 17.9328 15.8692 17.8095C15.6641 17.6865 15.4145 17.6627 15.1899 17.7447L12.619 18.6802C12.6176 18.7533 12.6118 18.8263 12.6012 18.8984C12.4458 19.7578 11.627 20.3317 10.7662 20.1843L6.30523 19.3978L6.44318 18.6171L10.9021 19.4038C11.3314 19.4767 11.74 19.1919 11.8201 18.7638C11.8366 18.6734 11.836 18.5805 11.8182 18.4904C11.8153 18.4772 11.813 18.4641 11.8114 18.4507C11.8062 18.4169 11.7971 18.3838 11.7841 18.352C11.6868 18.086 11.4554 17.8919 11.1766 17.842L5.89719 16.911L3.40868 17.8163L4.76399 21.5409L5.13643 21.4059C5.22079 21.3745 5.31327 21.3726 5.39879 21.4007ZM2.80174 23.0971L4.29113 22.555L2.39408 17.3421L0.904497 17.884L2.80174 23.0971Z" fill="#292D32"/>
<path d="M14.6922 6.39174C14.5643 6.85995 14.3285 7.29179 14.0036 7.65224C14.0096 7.68397 14.0139 7.7159 14.0158 7.74821V9.90606C14.0158 10.5625 13.4838 11.0948 12.8271 11.0948V15.0572C12.8281 15.2081 12.7429 15.3465 12.6081 15.4138L11.8156 15.81C11.704 15.8658 11.5728 15.8658 11.4613 15.81L10.6689 15.4138C10.5338 15.3465 10.4489 15.2081 10.4496 15.0572V11.0948C9.79317 11.0948 9.26092 10.5625 9.26092 9.90606V7.74821C9.26304 7.71357 9.26749 7.67914 9.27407 7.64508C9.00939 7.3539 8.80315 7.01454 8.66655 6.64539C8.08148 6.74367 7.49582 6.47493 7.18858 5.96744C6.81188 5.34425 6.915 4.54344 7.43739 4.03615L10.6621 0.812229C11.181 0.290613 11.8872 -0.00192524 12.6232 9.53637e-06H16.7895C16.8433 -0.000183941 16.8963 0.0108443 16.9457 0.0321268L19.6425 1.18874H19.9595V0.396252C19.9595 0.177428 20.1369 9.53637e-06 20.3557 9.53637e-06H23.5256C23.7445 9.53637e-06 23.9219 0.177428 23.9219 0.396252V6.73613C23.9219 6.95495 23.7445 7.13237 23.5256 7.13237H20.3557C20.1369 7.13237 19.9595 6.95495 19.9595 6.73613V5.94364H19.9016C19.618 6.89458 18.3437 7.52861 17.1858 7.52861C16.2251 7.54835 15.3075 7.13005 14.6922 6.39174ZM20.7519 6.33988H23.1294V0.792494H20.7519V6.33988ZM11.2421 14.8123L11.6384 15.0104L12.0346 14.8123V11.0948H11.2421V14.8123ZM10.0534 9.90606C10.0534 10.1249 10.2308 10.3023 10.4496 10.3023H12.8271C13.0459 10.3023 13.2233 10.1249 13.2233 9.90606V8.28859C12.9569 8.44376 12.6688 8.55869 12.3687 8.6293C12.2318 8.96267 11.8883 9.16272 11.531 9.11745C11.1734 9.07237 10.8906 8.79318 10.8409 8.43621C10.7911 8.07944 10.9869 7.7335 11.3184 7.59226C11.65 7.45122 12.035 7.5497 12.2577 7.83295C12.4812 7.77433 12.695 7.6832 12.8917 7.56228C12.5098 7.33068 12.0822 7.18403 11.6384 7.13237C11.0695 7.21227 10.527 7.42317 10.0534 7.74821V9.90606ZM9.75835 7.00274C10.3248 6.63842 10.9685 6.41147 11.6384 6.33988C12.307 6.41108 12.9498 6.63765 13.5155 7.00119C13.7571 6.69356 13.9171 6.32982 13.9806 5.94364H12.0346C11.4542 5.94945 10.9194 5.62943 10.6503 5.11517L9.54068 6.22457C9.49638 6.26598 9.44956 6.30448 9.40041 6.33988C9.48206 6.57922 9.60298 6.80326 9.75835 7.00274ZM10.4684 4.17603C10.5054 3.85176 10.6427 3.54703 10.861 3.30422C9.96479 3.61553 9.33927 4.42968 9.26962 5.37578L10.4684 4.17603ZM15.2045 5.5474C15.2045 6.14737 16.1861 6.73613 17.1858 6.73613C18.1855 6.73613 19.167 6.14737 19.167 5.5474C19.167 5.32858 19.3444 5.15116 19.5632 5.15116H19.9595V1.98122H19.5632C19.5096 1.98141 19.4564 1.97039 19.4071 1.9491L16.7104 0.792494H12.6251C12.0988 0.790559 11.5935 0.999515 11.2224 1.37254L7.99847 4.59646C7.73786 4.83985 7.67924 5.23068 7.85704 5.53985C7.98938 5.74939 8.22078 5.87515 8.46843 5.87225C8.47482 5.87225 8.48081 5.87225 8.4872 5.87225C8.4752 5.76448 8.46901 5.65594 8.46843 5.5474C8.47037 3.79759 9.88856 2.3794 11.6384 2.37746C12.1708 2.37824 12.6944 2.51464 13.1597 2.7737H16.3933V3.56619H12.0346C11.597 3.56619 11.2421 3.92103 11.2421 4.35867C11.2421 4.79632 11.597 5.15116 12.0346 5.15116H14.8083C15.0271 5.15116 15.2045 5.32858 15.2045 5.5474Z" fill="#292D32"/>
</g>
<defs>
<clipPath id="clip0_2988_10373">
<rect width="24" height="24" fill="white" transform="matrix(-1 0 0 1 24 0)"/>
</clipPath>
</defs>
</svg>
