<svg width="45" height="40" viewBox="0 0 45 40" fill="none" xmlns="http://www.w3.org/2000/svg">
<path d="M44.4447 8.75309C44.3913 8.16534 43.9505 7.68447 43.3761 7.59096C43.109 7.55089 42.8284 7.52419 42.5479 7.52419C40.1034 7.52419 37.659 7.52419 35.2145 7.52419H33.3845C32.3693 7.52419 32.1021 7.27039 32.0887 6.26855C32.0486 3.24968 29.7645 0.92539 26.7991 0.858601C24.6618 0.80517 22.4711 0.818542 20.3606 0.8319L18.7175 0.845271C18.2901 0.845271 17.876 0.885353 17.4886 0.978858C14.9106 1.55324 13.2675 3.62368 13.2007 6.37539C13.174 7.41731 12.5061 7.57759 11.9852 7.53752C9.88801 7.52416 7.80417 7.52419 5.70699 7.52419H2.66145C2.40765 7.52419 2.06029 7.53752 1.76641 7.61766C1.52597 7.68445 0.804688 7.89818 0.804688 9.24732V32.7972C0.804688 32.9976 0.804701 33.1979 0.818058 33.3983C0.884848 34.7474 1.3123 35.9496 2.0737 36.9915C3.47627 38.9017 5.37305 39.8234 7.88433 39.8234C11.3306 39.8234 14.777 39.8234 18.2233 39.8234H37.3785C38.6474 39.8234 39.6226 39.6365 40.4507 39.2357C43.149 37.9267 44.4715 35.8294 44.4715 32.8239C44.4848 27.0132 44.4715 21.2026 44.4715 15.3786V9.27406C44.4581 9.11377 44.4581 8.9401 44.4447 8.75309ZM18.771 3.65042C21.3357 3.63707 23.9137 3.63707 26.4784 3.65042C28.1749 3.65042 29.2435 4.73238 29.2702 6.45554C29.2702 6.69598 29.2435 7.01658 29.0031 7.25702C28.7225 7.53753 28.3486 7.52419 28.2016 7.52419C26.8124 7.51083 25.4366 7.51082 24.0474 7.51082H22.6181H21.1754C19.8129 7.51082 18.4504 7.51083 17.0879 7.52419C17.0745 7.52419 17.0745 7.52419 17.0612 7.52419C16.8341 7.52419 16.5002 7.48409 16.2597 7.24365C16.0059 6.98985 15.9925 6.66929 15.9925 6.40214C16.0326 4.71905 17.1013 3.66378 18.771 3.65042ZM3.94375 10.6232C4.19755 10.3694 4.53152 10.3293 4.81204 10.3293C9.54071 10.3427 14.2828 10.3427 19.0114 10.3427H26.4784C31.1403 10.3427 35.8022 10.3427 40.4641 10.3293C40.758 10.3561 41.1053 10.356 41.3724 10.6365C41.6396 10.9037 41.6663 11.251 41.653 11.5582C41.6396 12.5467 41.6396 13.5352 41.6396 14.5371C41.6396 15.0847 41.6396 15.619 41.6396 16.1667C41.6263 18.1303 40.6912 19.4661 38.8612 20.1206C36.39 21.0022 33.9188 21.8839 31.4342 22.7655C29.0031 23.6337 26.5719 24.4887 24.1408 25.3569C23.6466 25.5306 23.1523 25.624 22.6581 25.624C22.1505 25.624 21.6296 25.5306 21.1086 25.3435C17.5554 24.0745 13.9889 22.8055 10.4357 21.5366L6.53517 20.1473C4.61164 19.4661 3.67664 18.1437 3.66328 16.1133C3.66328 15.5389 3.66328 14.9512 3.66328 14.3768C3.66328 13.4284 3.66327 12.4666 3.64991 11.5182C3.66327 11.2243 3.68995 10.877 3.94375 10.6232ZM41.6663 23.3131V32.8239C41.6663 34.5871 40.9316 35.8562 39.4623 36.6042C38.7276 36.9782 37.9528 37.0317 37.4319 37.0317C32.0219 37.0317 26.6121 37.0317 21.2021 37.0317C16.754 37.0317 12.2925 37.0317 7.84429 37.0317C5.27959 37.0317 3.62317 35.3752 3.62317 32.8239C3.62317 30.4729 3.62317 28.1353 3.62317 25.7843V23.2998C3.62317 23.2196 3.62318 23.1395 3.63654 23.046L3.67666 22.0442L4.47809 22.3781C5.74709 22.9124 7.05616 23.3666 8.32516 23.8074C8.83276 23.9811 9.34036 24.1547 9.8346 24.3417C12.4795 25.2901 15.1377 26.2252 17.7825 27.1736L20.1202 28.0017C21.8166 28.6028 23.4729 28.6028 25.1827 27.9884C27.9077 27.0132 30.6461 26.0515 33.3711 25.0764L39.676 22.8323C39.9298 22.7388 40.1836 22.6453 40.424 22.5384L41.2255 22.2178L41.4927 22.6185C41.6797 22.899 41.6796 23.1662 41.6663 23.3131Z" fill="white"/>
</svg>
