<svg width="40" height="40" viewBox="0 0 40 40" fill="none" xmlns="http://www.w3.org/2000/svg">
<path d="M19.5485 39.8222C9.08692 39.9427 0.0452135 31.1957 0.0586086 20.3189C0.0720037 9.83058 8.53772 1.12379 18.9189 0.829101C30.653 0.480829 39.1187 10.1253 39.1053 20.2922C39.0919 30.9814 30.2779 39.9293 19.5485 39.8222ZM2.33579 20.3189C2.37597 29.7625 9.8906 37.5183 19.5618 37.5317C29.0991 37.5451 36.8013 29.8562 36.7879 20.2922C36.7745 10.6209 28.992 3.07948 19.5618 3.09287C10.0112 3.10627 2.38937 10.7682 2.33579 20.3189Z" fill="white"/>
<path d="M28.9515 10.219C28.9515 10.2993 28.8979 10.3395 28.8711 10.3931C28.4425 10.9959 28.0004 11.5986 27.5718 12.2014C27.478 12.322 27.3976 12.3622 27.2503 12.3622C25.9778 12.3622 24.7052 12.3622 23.4327 12.3622C23.3657 12.3622 23.2853 12.3622 23.2184 12.3622C23.2184 12.4425 23.272 12.4827 23.3121 12.5229C23.8212 13.0855 24.156 13.7419 24.357 14.4652C24.3971 14.6259 24.4641 14.6661 24.6248 14.6661C25.9911 14.6527 27.3708 14.6661 28.7371 14.6661C28.8041 14.6661 28.8845 14.6661 28.9515 14.6661C28.9783 14.7465 28.9247 14.7733 28.8979 14.8135C28.429 15.4297 27.9602 16.0458 27.4914 16.6754C27.411 16.7825 27.3307 16.8093 27.2101 16.8093C26.4064 16.8093 25.5893 16.8227 24.7856 16.7959C24.5579 16.7959 24.4775 16.8629 24.4373 17.0772C24.156 18.256 23.6068 19.274 22.7361 20.1179C21.7583 21.069 20.5662 21.6583 19.2534 22.0334C18.4497 22.2611 17.6192 22.3683 16.7887 22.4755C16.6548 22.4889 16.4672 22.4754 16.4271 22.5692C16.3869 22.6764 16.5476 22.7835 16.6414 22.8773C18.9185 25.4492 21.2091 28.0344 23.4863 30.6062C24.0221 31.2224 24.5713 31.8252 25.0669 32.4682C25.1741 32.6021 25.2678 32.7227 25.2678 32.9102C25.2678 33.004 25.241 33.0576 25.1339 33.0576C24.0355 33.0576 22.9505 33.0576 21.8521 33.0576C21.7315 33.0576 21.6779 32.9772 21.6109 32.9102C20.4054 31.5975 19.2132 30.2848 18.0077 28.9855C16.1993 27.0164 14.391 25.0473 12.5961 23.0782C12.5157 22.9845 12.4755 22.9041 12.4755 22.7835C12.4755 22.2343 12.4889 21.6852 12.4755 21.136C12.4755 20.9752 12.5157 20.9216 12.6764 20.9216C13.6275 20.9216 14.5919 20.9216 15.543 20.9082C16.7619 20.8814 17.9005 20.5733 18.9587 19.984C20.1643 19.3276 20.8608 18.3096 21.0886 16.9567C21.1153 16.7692 21.0082 16.8227 20.9278 16.8227C20.1241 16.8093 19.307 16.8093 18.5033 16.8093C16.3065 16.7959 14.0963 16.796 11.8995 16.7826C11.8325 16.7826 11.7656 16.7826 11.6986 16.7826C11.6718 16.6888 11.7388 16.6486 11.779 16.595C12.1942 16.019 12.6094 15.4296 13.0247 14.8537C13.0917 14.7465 13.1721 14.7063 13.306 14.7063C15.6903 14.6929 18.0747 14.6795 20.4724 14.6661C20.5528 14.6661 20.6331 14.6661 20.7403 14.6661C20.6197 14.425 20.459 14.2241 20.2983 14.0365C19.95 13.6213 19.5213 13.3266 19.0391 13.0855C18.1015 12.6167 17.1102 12.4157 16.0654 12.4023C14.6589 12.3889 13.2524 12.3488 11.846 12.322C11.7924 12.322 11.7388 12.322 11.6986 12.322C11.6718 12.2684 11.6986 12.2416 11.7254 12.2148C12.1674 11.5853 12.6229 10.9691 13.0649 10.3395C13.1319 10.2458 13.1855 10.2056 13.306 10.2056C18.5033 10.2056 23.6872 10.2056 28.8845 10.2056C28.8845 10.2056 28.9113 10.2056 28.9515 10.219Z" fill="white"/>
</svg>
