<svg width="35" height="40" viewBox="0 0 35 40" fill="none" xmlns="http://www.w3.org/2000/svg">
<path d="M17.6316 39.812C12.028 39.812 6.42434 39.812 0.820665 39.8234C0.535925 39.8234 0.43341 39.755 0.45619 39.4589C0.478969 39.1628 0.467579 38.8667 0.45619 38.582C0.4448 38.377 0.524505 38.32 0.718128 38.32C1.35594 38.3313 2.00515 38.3086 2.64297 38.3314C2.91632 38.3428 2.98464 38.2516 2.98464 37.9897C2.97325 33.1036 2.98464 28.2288 2.98464 23.3427C2.98464 22.8187 2.98466 22.8187 3.49719 22.8187C5.01201 22.8187 6.52681 22.8074 8.04163 22.8187C8.30359 22.8187 8.36057 22.739 8.36057 22.4884C8.36057 19.436 8.3833 16.3836 8.3833 13.3312C8.3833 13.0123 8.47446 12.9326 8.78198 12.944C10.1943 12.9668 11.618 12.944 13.0303 12.9554C13.2922 12.9554 13.3833 12.8984 13.3833 12.6137C13.372 10.9964 13.3833 9.39043 13.3719 7.77311C13.3719 7.52254 13.4289 7.43141 13.6909 7.4428C14.7615 7.45419 15.8321 7.45419 16.8914 7.4428C17.3583 7.4428 17.3356 7.53391 17.3356 7.00999C17.3356 5.07376 17.3356 3.12616 17.3242 1.18993C17.3242 0.916577 17.3697 0.791283 17.6772 0.825452C17.9506 0.848231 18.2239 0.848231 18.4973 0.825452C18.7592 0.802672 18.8276 0.893799 18.8276 1.15576C18.8162 3.11477 18.8276 5.08515 18.8162 7.04416C18.8162 7.36307 18.8845 7.46557 19.2262 7.46557C20.2741 7.44279 21.3219 7.4542 22.3697 7.4542C22.7798 7.4542 22.7798 7.4542 22.7798 7.87561C22.7798 12.5453 22.7798 17.2037 22.7798 21.8734C22.7798 22.3176 22.7798 22.3062 23.2126 22.3062C24.0098 22.3062 24.8071 22.3176 25.6044 22.2948C25.8663 22.2948 25.9347 22.3632 25.9347 22.6251C25.9233 24.2197 25.9347 25.8028 25.9233 27.3973C25.9233 27.6821 26.003 27.7618 26.2878 27.7618C28.1898 27.7504 30.0805 27.7618 31.9826 27.7505C32.2901 27.7505 32.3926 27.8074 32.3926 28.1377C32.3812 31.4065 32.3812 34.6753 32.3698 37.9328C32.3698 38.2289 32.4381 38.3313 32.7456 38.32C33.3265 38.2972 33.896 38.3313 34.4769 38.3086C34.7275 38.2972 34.7958 38.3883 34.7844 38.6275C34.7616 38.935 34.773 39.2425 34.7844 39.5387C34.7958 39.7551 34.7047 39.812 34.4997 39.812C33.4974 39.8006 32.4951 39.812 31.4928 39.812C26.8686 39.812 22.2444 39.812 17.6316 39.812ZM16.3788 25.6661C16.3788 28.1491 16.3788 30.632 16.3788 33.1149C16.3788 34.755 16.3788 36.3837 16.3788 38.0238C16.3788 38.2744 16.4472 38.3314 16.6864 38.3314C17.3469 38.32 18.0189 38.32 18.6795 38.3314C18.9301 38.3428 19.0098 38.2744 19.0098 38.0125C18.9984 34.8576 18.9984 31.6912 18.9984 28.5363C18.9984 26.5773 19.0098 24.6183 18.987 22.6479C18.987 22.3632 19.0668 22.3062 19.3287 22.3176C19.8641 22.3404 20.3993 22.3062 20.9232 22.329C21.208 22.3404 21.3105 22.2606 21.3105 21.9531C21.2991 20.0511 21.2991 18.1376 21.2991 16.2356C21.2991 13.9121 21.2991 11.5886 21.2991 9.27654C21.2991 9.09431 21.3105 8.94623 21.0372 8.94623C19.0554 8.95762 17.0736 8.95762 15.0918 8.94623C14.9323 8.94623 14.8526 8.96902 14.8526 9.16264C14.864 10.3585 14.8526 11.5658 14.8526 12.7618C14.8526 12.9212 14.8982 12.9781 15.0576 12.9668C15.3766 12.9554 15.6954 12.9895 16.0029 12.9554C16.2991 12.9326 16.3674 13.0465 16.356 13.3198C16.3788 17.4201 16.3788 21.5431 16.3788 25.6661ZM14.8868 26.4179C14.8868 22.534 14.8868 18.6615 14.8982 14.7777C14.8982 14.5157 14.8412 14.4246 14.5565 14.436C13.0986 14.4474 11.6407 14.4474 10.1715 14.436C9.89812 14.436 9.8298 14.5043 9.8298 14.7777C9.84119 22.5226 9.84119 30.2789 9.8298 38.0238C9.8298 38.263 9.89816 38.3314 10.1373 38.3314C11.5952 38.32 13.053 38.32 14.5109 38.3314C14.807 38.3314 14.8868 38.263 14.8868 37.9555C14.8754 34.1058 14.8868 30.2562 14.8868 26.4179ZM8.32636 31.3154C8.33775 31.3154 8.33778 31.3154 8.34917 31.3154C8.34917 29.083 8.34918 26.8507 8.36057 24.6183C8.36057 24.345 8.28085 24.2652 8.01889 24.2766C6.94827 24.288 5.87758 24.288 4.81835 24.2766C4.52222 24.2766 4.46528 24.3677 4.46528 24.6525C4.47667 26.7823 4.46528 28.9008 4.46528 31.0306C4.46528 33.3541 4.47673 35.6776 4.45395 37.9897C4.45395 38.2858 4.53361 38.3541 4.81835 38.3428C5.87758 38.3314 6.93685 38.3314 7.98469 38.3428C8.25804 38.3428 8.32636 38.2744 8.32636 38.0011C8.32636 35.7573 8.32636 33.5363 8.32636 31.3154ZM30.8891 33.8781C30.8891 32.4885 30.8777 31.0876 30.8891 29.6981C30.8891 29.4703 30.8322 29.4019 30.593 29.4019C28.4631 29.4133 26.3447 29.4133 24.2149 29.4019C23.9985 29.4019 23.9415 29.4703 23.9415 29.6753C23.9415 32.4657 23.9415 35.2562 23.9415 38.0466C23.9415 38.2516 23.9871 38.3314 24.2149 38.3314C26.3219 38.32 28.4176 38.32 30.5247 38.3314C30.8094 38.3314 30.9005 38.263 30.8891 37.9669C30.8891 36.6001 30.8891 35.2448 30.8891 33.8781ZM20.4904 31.0534C20.4904 33.3769 20.4904 35.7004 20.4904 38.0125C20.4904 38.2517 20.5588 38.3313 20.798 38.32C21.265 38.2972 21.7319 38.3086 22.1989 38.32C22.4267 38.3313 22.4722 38.2402 22.4722 38.0352C22.4608 37.4202 22.4722 36.8166 22.4722 36.2015C22.4722 33.5022 22.4723 30.7915 22.4609 28.0921C22.4609 27.8188 22.5292 27.7277 22.8026 27.7391C23.2467 27.7618 23.6909 27.7391 24.1465 27.7505C24.3857 27.7618 24.4541 27.6821 24.4541 27.4315C24.4427 26.3153 24.4427 25.1878 24.4541 24.0716C24.4541 23.8096 24.3629 23.7755 24.1351 23.7755C23.0417 23.7869 21.9597 23.7869 20.8663 23.7755C20.5816 23.7755 20.479 23.8324 20.4904 24.1399C20.5018 26.452 20.4904 28.7527 20.4904 31.0534Z" fill="white"/>
<path d="M12.3147 31.965C12.0413 31.965 11.768 31.9536 11.4946 31.965C11.3238 31.9764 11.2554 31.9194 11.2668 31.7486C11.2782 31.2361 11.2782 30.7235 11.2668 30.2224C11.2668 30.0515 11.3352 30.006 11.4946 30.006C12.0641 30.0174 12.6222 30.0174 13.1917 30.006C13.3739 30.006 13.4081 30.0857 13.4081 30.2452C13.4081 30.7463 13.3967 31.2474 13.4081 31.7486C13.4081 31.9422 13.3397 31.9878 13.1575 31.9878C12.8841 31.9536 12.5994 31.965 12.3147 31.965Z" fill="white"/>
<path d="M12.3362 34.4477C12.621 34.4477 12.9057 34.4591 13.1791 34.4477C13.3385 34.4477 13.4183 34.4933 13.4069 34.6641C13.3955 35.1767 13.3955 35.6892 13.4069 36.2017C13.4069 36.3726 13.3385 36.4295 13.1791 36.4295C12.621 36.4181 12.0743 36.4181 11.5162 36.4295C11.3453 36.4295 11.2656 36.3839 11.2656 36.1903C11.277 35.6892 11.277 35.188 11.2656 34.6869C11.2656 34.5046 11.3339 34.4364 11.5162 34.4477C11.7895 34.4591 12.0629 34.4477 12.3362 34.4477Z" fill="white"/>
<path d="M12.3223 18.4332C12.049 18.4332 11.7757 18.4218 11.5023 18.4332C11.3429 18.4332 11.2631 18.399 11.2745 18.2168C11.2859 17.7043 11.2859 17.1918 11.2745 16.6792C11.2745 16.5084 11.3201 16.4514 11.4909 16.4514C12.0604 16.4628 12.6185 16.4628 13.188 16.4514C13.336 16.4514 13.4044 16.497 13.4044 16.6564C13.4044 17.1803 13.4044 17.7043 13.4044 18.2282C13.4044 18.3876 13.3474 18.4446 13.1994 18.4332C12.9032 18.4218 12.6071 18.4332 12.3223 18.4332Z" fill="white"/>
<path d="M12.3555 22.8758C12.0707 22.8758 11.7859 22.8644 11.5126 22.8758C11.319 22.8872 11.2734 22.8189 11.2734 22.6366C11.2848 22.1355 11.2848 21.6344 11.2734 21.1332C11.2734 20.9738 11.319 20.894 11.4898 20.894C12.0593 20.9054 12.6174 20.9054 13.1869 20.894C13.3577 20.894 13.4147 20.9624 13.4147 21.1218C13.4033 21.623 13.4033 22.1241 13.4147 22.6253C13.4147 22.8075 13.3691 22.8758 13.1755 22.8645C12.9021 22.8645 12.6288 22.8758 12.3555 22.8758Z" fill="white"/>
<path d="M12.3476 25.37C12.6324 25.37 12.9171 25.3814 13.1905 25.37C13.3499 25.37 13.4069 25.427 13.4069 25.575C13.4069 26.099 13.4069 26.6229 13.4069 27.1354C13.4069 27.2607 13.3613 27.3404 13.2246 27.329C12.6323 27.329 12.0515 27.329 11.4592 27.329C11.3226 27.329 11.2656 27.2721 11.2656 27.1354C11.2656 26.6001 11.277 26.0762 11.2656 25.5409C11.2656 25.3928 11.3339 25.3586 11.4592 25.3586C11.7667 25.37 12.0629 25.37 12.3476 25.37Z" fill="white"/>
<path d="M27.3028 30.9849C27.5419 30.9849 27.7811 30.9963 28.0203 30.9849C28.2253 30.9735 28.2822 31.0532 28.2822 31.2469C28.2709 31.7138 28.2822 32.1808 28.2822 32.6478C28.2822 32.8528 28.2139 32.9667 27.9861 32.9667C27.4963 32.9553 27.0066 32.9553 26.5169 32.9667C26.346 32.9667 26.2891 32.9098 26.2891 32.7389C26.3005 32.2264 26.3005 31.7138 26.2891 31.2013C26.2891 31.0191 26.3688 30.9735 26.5283 30.9849C26.7788 30.9849 27.0408 30.9849 27.3028 30.9849Z" fill="white"/>
<path d="M27.2643 37.4092C27.0138 37.4092 26.7632 37.3978 26.5126 37.4092C26.3418 37.4206 26.2848 37.3637 26.2848 37.1928C26.2848 36.6917 26.2848 36.1905 26.2734 35.6894C26.2734 35.5413 26.2962 35.4502 26.4898 35.4502C26.991 35.4616 27.4921 35.4502 27.9933 35.4388C28.1983 35.4388 28.2894 35.4958 28.278 35.7122C28.2666 36.1905 28.2666 36.6689 28.278 37.1473C28.278 37.3523 28.2097 37.4092 28.0161 37.3978C27.7655 37.3864 27.5149 37.3978 27.2643 37.4092Z" fill="white"/>
</svg>
