<svg width="44" height="40" viewBox="0 0 44 40" fill="none" xmlns="http://www.w3.org/2000/svg">
<path d="M41.1847 5.95619H12.858C9.80214 5.95619 9.5364 5.74361 8.85879 2.7143C8.5532 1.33251 8.02175 0.867479 6.69311 0.840907C4.9393 0.801047 3.17221 0.82762 1.52469 0.840907C0.342195 0.854193 0.355475 1.58497 0.355475 1.82413C0.355475 2.06329 0.355474 2.79403 1.53797 2.80731C1.79041 2.80731 2.04286 2.82059 2.2953 2.83387C3.13235 2.86045 3.92952 2.88702 4.71342 2.79401C6.62667 2.56814 7.13156 3.73736 7.37071 4.87999C8.77907 11.7624 10.2672 18.751 11.7154 25.5138L12.3133 28.3305C12.672 30.0046 13.044 30.2969 14.7978 30.3102C17.5747 30.3235 20.3516 30.3235 23.1284 30.3102H26.0647H29.4926C32.2562 30.3102 35.0065 30.3235 37.7701 30.297C38.3945 30.297 38.8994 30.0711 39.0987 29.7123C39.2714 29.3935 39.1519 29.0746 39.019 28.8487C38.7533 28.4236 38.4078 28.3305 37.5841 28.3571C35.0065 28.3571 32.4289 28.3571 29.8514 28.3571C25.3074 28.3571 20.7767 28.3571 16.2328 28.3837C15.5684 28.397 14.8244 28.3438 14.3328 27.839C14.0139 27.4935 13.8678 27.0285 13.9076 26.404C13.9342 25.8992 14.1069 25.5271 14.3992 25.3012C14.851 24.9558 15.3824 25.0754 15.781 25.1551C15.9006 25.1817 16.0069 25.2215 16.0866 25.2082C21.2683 25.1817 26.4368 25.1817 31.6185 25.1817H38.0358C39.7232 25.1817 40.1616 24.8229 40.5204 23.1887C41.5434 18.4189 42.5532 13.6357 43.5497 8.85263C43.8021 7.61699 43.7888 6.85968 43.4965 6.50094C43.1909 6.12892 42.4602 5.95619 41.1847 5.95619ZM41.291 10.1813C40.3211 14.2336 39.5106 18.2196 38.8596 21.5811C38.6204 22.7901 38.0491 23.295 36.8666 23.295H36.8533C29.5458 23.2684 22.2382 23.2817 14.9174 23.2684C14.851 23.295 14.7712 23.2684 14.6915 23.2817C14.2132 23.3083 13.2433 23.3614 12.9776 22.0859C12.3133 18.8308 11.6091 15.5756 10.8916 12.254L10.121 8.64004C10.0812 8.46732 10.121 8.28134 10.2406 8.13519C10.3602 7.98904 10.5196 7.9093 10.7056 7.9093H18.6908C25.4934 7.9093 32.5219 7.9226 39.4442 7.88274C40.1085 7.86946 40.7728 7.92258 41.1581 8.40089C41.5302 8.89249 41.4372 9.54352 41.291 10.1813Z" fill="white"/>
<path d="M34.394 32.2898C33.4241 32.3031 32.4276 32.6884 31.7101 33.4058C30.9927 34.1233 30.5808 35.0932 30.5941 36.0764C30.5941 37.0729 31.0059 38.0162 31.7367 38.7337C32.4542 39.4379 33.3842 39.8232 34.3674 39.8232C34.394 39.8232 34.4073 39.8232 34.4339 39.8232C35.4303 39.8099 36.4135 39.3715 37.1177 38.6275C37.8219 37.8834 38.1939 36.9268 38.154 35.9436C38.0743 33.9373 36.387 32.3031 34.394 32.2898Z" fill="white"/>
<path d="M17.3991 32.2764C16.3628 32.2366 15.4327 32.6617 14.702 33.3792C13.9845 34.0967 13.5859 35.04 13.5859 36.0498C13.5859 37.0596 13.9845 38.0161 14.7153 38.7336C15.4327 39.4378 16.3628 39.8231 17.3593 39.8231C17.3726 39.8231 17.3858 39.8231 17.4124 39.8231C18.4355 39.8098 19.3788 39.4113 20.0564 38.7071C20.7473 37.9896 21.1193 37.0197 21.106 35.9701C21.0662 33.9505 19.4054 32.2897 17.3991 32.2764Z" fill="white"/>
</svg>
