<svg width="50" height="40" viewBox="0 0 50 40" fill="none" xmlns="http://www.w3.org/2000/svg">
<path d="M6.69805 18.9065C5.58577 19.7642 4.59416 20.5415 3.57569 21.3053C2.47681 22.1228 1.48511 22.029 0.774857 21.0775C0.131613 20.2065 0.305815 19.2282 1.35109 18.4241C8.6948 12.7287 16.0385 7.04675 23.3822 1.35135C24.2801 0.654504 25.1645 0.64109 26.0624 1.33794C33.4061 7.03333 40.7498 12.7153 48.0935 18.4107C49.179 19.255 49.3532 20.2734 48.6564 21.1713C47.9595 22.0692 46.9545 22.1362 45.8422 21.3187C44.8237 20.5683 43.832 19.791 42.8136 19.0004C42.4517 19.5498 42.5858 20.0188 42.5858 20.4745C42.5724 26.0627 42.5858 31.6374 42.5724 37.2256C42.5724 39.276 42.0364 39.8254 40.0128 39.8254C29.8281 39.8254 19.63 39.8254 9.4453 39.8254C7.43516 39.8254 6.91249 39.276 6.89909 37.2122C6.89909 31.624 6.89908 26.0492 6.88568 20.4611C6.88568 19.992 6.99287 19.523 6.69805 18.9065ZM24.7491 38.0967C29.6271 38.0967 34.5184 38.0833 39.3963 38.1101C40.2004 38.1101 40.589 38.0029 40.5756 37.038C40.5354 30.0427 40.5488 23.0608 40.5622 16.0655C40.5622 15.4893 40.3746 15.1007 39.9056 14.7523C35.0947 11.0402 30.2837 7.32813 25.4996 3.57587C24.8831 3.09344 24.5079 3.13365 23.9183 3.58928C19.1744 7.31474 14.417 11.0268 9.64627 14.7121C9.09683 15.1409 8.86899 15.5697 8.86899 16.2666C8.89579 23.1546 8.90926 30.0561 8.85566 36.9442C8.85566 37.9224 9.19066 38.1235 10.0885 38.1101C14.9933 38.0833 19.8712 38.0967 24.7491 38.0967Z" fill="white"/>
<path d="M24.8002 31.6107C23.0045 31.6509 21.2222 31.4633 19.4667 31.1283C18.676 30.9809 18.3678 30.5654 18.4616 29.7882C18.609 28.6089 18.6894 27.4162 18.877 26.2369C19.1987 24.2804 20.847 22.7795 22.8303 22.6589C24.1034 22.5785 25.3899 22.5785 26.663 22.6589C28.3649 22.7795 29.6648 23.6371 30.3348 25.2318C30.9915 26.7863 30.9244 28.4883 31.0853 30.1366C31.1523 30.82 30.5894 31.0344 29.9998 31.1416C28.2845 31.4767 26.5557 31.6509 24.8002 31.6107Z" fill="white"/>
<path d="M28.8511 17.392C28.8377 19.6836 26.975 21.5329 24.6968 21.5061C22.3918 21.4793 20.596 19.6434 20.6094 17.325C20.6229 15.0334 22.4856 13.1841 24.7638 13.1975C27.0419 13.2243 28.8645 15.0871 28.8511 17.392Z" fill="white"/>
</svg>
