<svg width="72" height="72" viewBox="0 0 72 72" fill="none" xmlns="http://www.w3.org/2000/svg">
<path d="M66.5 13.5V19.75C66.5 26 64 28.5 57.75 28.5H50.25C44 28.5 41.5 26 41.5 19.75V12.25C41.5 6 44 3.5 50.25 3.5H56.5" stroke="white" stroke-width="2.5" stroke-linecap="round" stroke-linejoin="round"/>
<path d="M66.5 13.5H61.5C57.75 13.5 56.5 12.25 56.5 8.5V3.5L66.5 13.5Z" stroke="white" stroke-width="2.5" stroke-linecap="round" stroke-linejoin="round"/>
<path d="M47.75 17.25H55.25" stroke="white" stroke-width="2.5" stroke-linecap="round" stroke-linejoin="round"/>
<path d="M47.75 22.25H52.75" stroke="white" stroke-width="2.5" stroke-linecap="round" stroke-linejoin="round"/>
<path d="M66 35.67V38.34C66 49.02 63.33 51.66 52.68 51.66H19.32C8.67 51.66 6 48.99 6 38.34V19.32C6 8.67 8.67 6 19.32 6H34" stroke="white" stroke-width="3" stroke-linecap="round" stroke-linejoin="round"/>
<path d="M36 51.66V66" stroke="white" stroke-width="3" stroke-linecap="round" stroke-linejoin="round"/>
<path d="M6 39H66" stroke="white" stroke-width="3" stroke-linecap="round" stroke-linejoin="round"/>
<path d="M22.5 66H49.5" stroke="white" stroke-width="3" stroke-linecap="round" stroke-linejoin="round"/>
</svg>
