<svg width="72" height="72" viewBox="0 0 72 72" fill="none" xmlns="http://www.w3.org/2000/svg">
<path d="M27.4286 66H12C8.68629 66 6 63.3137 6 60V44.5714M44.5714 6H60C63.3137 6 66 8.68629 66 12V27.4286" stroke="white" stroke-width="3" stroke-linecap="round" stroke-linejoin="round"/>
<path d="M26 32.6667V29.3334C26 23.8167 27.6667 19.3334 36 19.3334C44.3333 19.3334 46 23.8167 46 29.3334V32.6667" stroke="white" stroke-width="3" stroke-linecap="round" stroke-linejoin="round"/>
<path d="M44.332 52.6666H27.6654C20.9987 52.6666 19.332 51 19.332 44.3333V41C19.332 34.3333 20.9987 32.6666 27.6654 32.6666H44.332C50.9987 32.6666 52.6654 34.3333 52.6654 41V44.3333C52.6654 51 50.9987 52.6666 44.332 52.6666Z" stroke="white" stroke-width="3" stroke-linecap="round" stroke-linejoin="round"/>
<path d="M42.6601 42.6667H42.6751" stroke="white" stroke-width="3" stroke-linecap="round" stroke-linejoin="round"/>
<path d="M35.9921 42.6667H36.0071" stroke="white" stroke-width="3" stroke-linecap="round" stroke-linejoin="round"/>
<path d="M29.3242 42.6667H29.3391" stroke="white" stroke-width="3" stroke-linecap="round" stroke-linejoin="round"/>
</svg>
