<svg width="30" height="30" viewBox="0 0 30 30" fill="none" xmlns="http://www.w3.org/2000/svg">
<path d="M15 0C12.0333 0 9.13319 0.879735 6.66645 2.52796C4.19972 4.17618 2.27713 6.51886 1.14181 9.25975C0.00649923 12.0006 -0.290551 15.0166 0.288228 17.9264C0.867006 20.8361 2.29562 23.5088 4.3934 25.6066C6.49119 27.7044 9.16394 29.133 12.0737 29.7118C14.9834 30.2906 17.9994 29.9935 20.7403 28.8582C23.4811 27.7229 25.8238 25.8003 27.4721 23.3336C29.1203 20.8668 30 17.9667 30 15C30 11.0218 28.4197 7.20644 25.6066 4.3934C22.7936 1.58035 18.9783 0 15 0ZM18.8013 13.5789L18.5526 15.6691C18.5419 15.7661 18.4956 15.8557 18.4227 15.9205C18.3498 15.9854 18.2555 16.021 18.1579 16.0204H15.9868V22.2178C15.9874 22.2918 15.9586 22.363 15.9069 22.4158C15.8551 22.4687 15.7845 22.499 15.7105 22.5H13.5C13.4632 22.4995 13.4269 22.4917 13.3931 22.4772C13.3592 22.4626 13.3286 22.4415 13.303 22.4151C13.2773 22.3887 13.2571 22.3576 13.2435 22.3233C13.2299 22.2891 13.2232 22.2526 13.2237 22.2158L13.2355 16.0204H11.5915C11.4868 16.0204 11.3864 15.9788 11.3123 15.9048C11.2383 15.8308 11.1967 15.7303 11.1967 15.6257V13.5375C11.1967 13.4328 11.2383 13.3324 11.3123 13.2584C11.3864 13.1844 11.4868 13.1428 11.5915 13.1428H13.2237V11.1178C13.2237 8.775 14.6191 7.5 16.6579 7.5H18.3296C18.4343 7.5 18.5347 7.54159 18.6087 7.61562C18.6828 7.68964 18.7243 7.79005 18.7243 7.89474V9.65329C18.7243 9.75798 18.6828 9.85838 18.6087 9.93241C18.5347 10.0064 18.4343 10.048 18.3296 10.048H17.3053C16.1961 10.0658 15.9868 10.5967 15.9868 11.3901V13.1368H18.4184C18.4735 13.1381 18.5277 13.1509 18.5775 13.1743C18.6274 13.1978 18.6718 13.2314 18.7078 13.2731C18.7439 13.3147 18.7709 13.3634 18.787 13.4161C18.8031 13.4688 18.8079 13.5243 18.8013 13.5789Z" fill="#1C6FF4"/>
</svg>
