<svg width="30" height="30" viewBox="0 0 30 30" fill="none" xmlns="http://www.w3.org/2000/svg">
<path d="M15 0C12.0333 0 9.13319 0.879735 6.66645 2.52796C4.19972 4.17618 2.27713 6.51886 1.14181 9.25975C0.00649923 12.0006 -0.290551 15.0166 0.288228 17.9264C0.867006 20.8361 2.29562 23.5088 4.3934 25.6066C6.49119 27.7044 9.16394 29.133 12.0737 29.7118C14.9834 30.2906 17.9994 29.9935 20.7403 28.8582C23.4811 27.7229 25.8238 25.8003 27.4721 23.3336C29.1203 20.8668 30 17.9667 30 15C30 11.0218 28.4197 7.20644 25.6066 4.3934C22.7936 1.58035 18.9783 0 15 0ZM11.1829 21.9928C11.1829 22.1273 11.1295 22.2563 11.0343 22.3514C10.9392 22.4466 10.8102 22.5 10.6757 22.5H8.5204C8.45372 22.5003 8.38764 22.4873 8.32598 22.4619C8.26432 22.4365 8.2083 22.3992 8.16115 22.352C8.114 22.3049 8.07664 22.2488 8.05124 22.1872C8.02585 22.1255 8.0129 22.0595 8.01316 21.9928V12.9553C8.01316 12.8207 8.06661 12.6917 8.16173 12.5966C8.25686 12.5015 8.38587 12.448 8.5204 12.448H10.6757C10.8102 12.448 10.9392 12.5015 11.0343 12.5966C11.1295 12.6917 11.1829 12.8207 11.1829 12.9553V21.9928ZM9.60395 11.5974C9.19851 11.5989 8.80173 11.4802 8.46383 11.2561C8.12593 11.032 7.86212 10.7127 7.70579 10.3386C7.54946 9.96453 7.50765 9.55246 7.58564 9.15459C7.66364 8.75672 7.85793 8.39094 8.14393 8.10356C8.42993 7.81618 8.79477 7.62012 9.19226 7.54021C9.58975 7.46029 10.002 7.50012 10.3769 7.65464C10.7517 7.80916 11.0723 8.07143 11.298 8.40825C11.5237 8.74506 11.6444 9.14127 11.6447 9.54671C11.645 9.81575 11.5923 10.0822 11.4896 10.3309C11.3868 10.5795 11.2361 10.8055 11.0461 10.9959C10.856 11.1863 10.6303 11.3375 10.3819 11.4407C10.1334 11.5439 9.86707 11.5971 9.59803 11.5974H9.60395ZM22.4566 22.0342C22.4566 22.1577 22.4075 22.2762 22.3202 22.3636C22.2328 22.4509 22.1143 22.5 21.9908 22.5H19.6717C19.5482 22.5 19.4297 22.4509 19.3424 22.3636C19.255 22.2762 19.2059 22.1577 19.2059 22.0342V17.7947C19.2059 17.1612 19.3895 15.0316 17.552 15.0316C16.127 15.0316 15.8368 16.4961 15.7757 17.1533V22.0441C15.7731 22.1652 15.7234 22.2806 15.6372 22.3657C15.551 22.4508 15.435 22.499 15.3138 22.5H13.0757C13.0144 22.5003 12.9537 22.4884 12.8971 22.4651C12.8405 22.4418 12.789 22.4075 12.7457 22.3642C12.7024 22.3209 12.6681 22.2694 12.6448 22.2128C12.6215 22.1561 12.6096 22.0955 12.6099 22.0342V12.9158C12.6096 12.8545 12.6215 12.7937 12.6448 12.7369C12.6681 12.6802 12.7023 12.6286 12.7456 12.5852C12.7889 12.5417 12.8403 12.5072 12.897 12.4837C12.9536 12.4601 13.0143 12.448 13.0757 12.448H15.3138C15.3759 12.447 15.4376 12.4583 15.4953 12.4813C15.5529 12.5044 15.6054 12.5387 15.6497 12.5822C15.694 12.6258 15.7291 12.6777 15.7531 12.7349C15.7771 12.7922 15.7895 12.8537 15.7895 12.9158V13.7053C16.3184 12.9158 17.104 12.298 18.7757 12.298C22.4822 12.298 22.4605 15.7599 22.4605 17.6605L22.4566 22.0342Z" fill="#1C6FF4"/>
</svg>
