<svg width="30" height="30" viewBox="0 0 30 30" fill="none" xmlns="http://www.w3.org/2000/svg">
<path fill-rule="evenodd" clip-rule="evenodd" d="M28.8212 20.8393C29.5802 19.0447 30 17.0715 30 15.0006H29.9998C29.9998 6.71619 23.284 0.000488281 14.9999 0.000488281C8.78662 0.000488281 3.45582 3.77817 1.17882 9.16191C0.419824 10.9565 0 12.9297 0 15.0006C0 23.2848 6.71571 30.0005 15.0001 30.0007C21.2131 30.0007 26.5439 26.2231 28.8212 20.8393ZM16.5941 13.9823V13.9826L22.8677 23.0777H18.1734L14.0234 17.0062L14.0233 17.0061L8.86158 23.0775H7.40469L13.3794 16.0638L7.13207 6.92376H11.7251L15.9489 13.0472L15.949 13.0474L15.9491 13.0472L21.1656 6.92351H22.5956L16.5941 13.9823ZM18.713 22.0548L14.7101 16.1984L14.7102 16.1982L14.7104 16.198L14.067 15.2567L14.0668 15.2568L14.0667 15.2567L9.07014 7.94672H11.1881L15.2624 13.8532L15.9078 14.7893L20.9192 22.0548H18.713Z" fill="#1C6FF4"/>
</svg>
