<svg width="30" height="30" viewBox="0 0 30 30" fill="none" xmlns="http://www.w3.org/2000/svg">
<path d="M13.207 12.1262L17.8866 14.9999L13.207 17.8756V12.1262Z" fill="#1C6FF4"/>
<path d="M15 0C12.0333 0 9.13319 0.879735 6.66645 2.52796C4.19972 4.17618 2.27713 6.51886 1.14181 9.25975C0.00649923 12.0006 -0.290551 15.0166 0.288228 17.9264C0.867006 20.8361 2.29562 23.5088 4.3934 25.6066C6.49119 27.7044 9.16394 29.133 12.0737 29.7118C14.9834 30.2906 17.9994 29.9935 20.7403 28.8582C23.4811 27.7229 25.8238 25.8003 27.4721 23.3336C29.1203 20.8668 30 17.9667 30 15C30 11.0218 28.4197 7.20644 25.6066 4.3934C22.7936 1.58035 18.9783 0 15 0ZM22.1487 18.6099C21.8487 19.5316 20.8559 20.0921 19.9421 20.2204C16.6566 20.5697 13.3434 20.5697 10.0579 20.2204C9.14409 20.0921 8.15132 19.5316 7.85132 18.6099C7.38357 16.2267 7.38357 13.7753 7.85132 11.3921C8.15132 10.4605 9.14409 9.90987 10.0658 9.78158C13.3513 9.43223 16.6645 9.43223 19.95 9.78158C20.8638 9.90987 21.8566 10.4684 22.1566 11.3921C22.6217 13.7758 22.619 16.2272 22.1487 18.6099Z" fill="#1C6FF4"/>
</svg>
