<svg width="20" height="21" viewBox="0 0 20 21" fill="none" xmlns="http://www.w3.org/2000/svg">
<path d="M16.2015 17.9025C14.6311 17.9025 13.0534 17.5374 11.4684 16.8071C9.88352 16.0768 8.42734 15.0467 7.09984 13.7167C5.77248 12.3865 4.74366 10.9303 4.01339 9.34792C3.28311 7.7657 2.91797 6.18938 2.91797 4.61897C2.91797 4.3666 3.0013 4.15633 3.16797 3.98813C3.33464 3.81994 3.54297 3.73584 3.79297 3.73584H6.51089C6.7213 3.73584 6.90693 3.80452 7.06776 3.94188C7.22859 4.0791 7.33089 4.24869 7.37464 4.45063L7.85234 6.90251C7.8854 7.13001 7.87846 7.32549 7.83151 7.48897C7.78443 7.65244 7.69998 7.78973 7.57818 7.90084L5.65359 9.77438C5.96332 10.3416 6.3172 10.8782 6.71526 11.3842C7.11318 11.89 7.54401 12.3731 8.00776 12.8335C8.46498 13.2909 8.95109 13.7156 9.46609 14.1077C9.98109 14.4998 10.5372 14.8647 11.1344 15.2023L13.0044 13.316C13.1348 13.1804 13.2928 13.0852 13.4782 13.0306C13.6635 12.9762 13.856 12.9629 14.0559 12.9906L16.3698 13.4619C16.5803 13.5174 16.752 13.6248 16.8851 13.784C17.0181 13.9431 17.0846 14.1237 17.0846 14.3256V17.0275C17.0846 17.2775 17.0005 17.4858 16.8323 17.6525C16.6642 17.8192 16.4539 17.9025 16.2015 17.9025ZM5.06214 8.59167L6.54943 7.16855C6.57609 7.14716 6.59345 7.11778 6.60151 7.08042C6.60957 7.04306 6.60825 7.00834 6.59755 6.97626L6.23526 5.11397C6.22457 5.07133 6.20589 5.03931 6.17922 5.01792C6.15255 4.99653 6.11783 4.98584 6.07505 4.98584H4.29297C4.26089 4.98584 4.23415 4.99653 4.21276 5.01792C4.19151 5.03931 4.18089 5.06605 4.18089 5.09813C4.22352 5.66758 4.31672 6.24605 4.46047 6.83355C4.60408 7.42119 4.80464 8.00723 5.06214 8.59167ZM12.3121 15.7935C12.8645 16.051 13.4406 16.2479 14.0405 16.3842C14.6405 16.5203 15.2011 16.6012 15.7223 16.6269C15.7544 16.6269 15.7812 16.6162 15.8026 16.5948C15.8239 16.5734 15.8346 16.5467 15.8346 16.5146V14.7615C15.8346 14.7187 15.8239 14.684 15.8026 14.6573C15.7812 14.6306 15.7491 14.612 15.7065 14.6013L13.9565 14.2454C13.9244 14.2347 13.8964 14.2334 13.8723 14.2415C13.8483 14.2495 13.8229 14.2669 13.7961 14.2935L12.3121 15.7935Z" fill="#666666"/>
</svg>
