<svg width="20" height="21" viewBox="0 0 20 21" fill="none" xmlns="http://www.w3.org/2000/svg">
<path d="M10.0009 17.0817C11.6312 15.6223 12.8788 14.2224 13.7436 12.8821C14.6085 11.5419 15.0409 10.368 15.0409 9.36048C15.0409 7.84131 14.5583 6.59242 13.593 5.61381C12.6277 4.6352 11.4304 4.14589 10.0009 4.14589C8.57149 4.14589 7.37413 4.6352 6.40885 5.61381C5.44358 6.59242 4.96094 7.84131 4.96094 9.36048C4.96094 10.368 5.39337 11.5419 6.25823 12.8821C7.12309 14.2224 8.37066 15.6223 10.0009 17.0817ZM10.0009 18.2707C9.83858 18.2707 9.67622 18.2427 9.51385 18.1867C9.35135 18.1306 9.20441 18.0438 9.07302 17.9263C8.32524 17.2371 7.62545 16.5274 6.97365 15.7971C6.32198 15.067 5.75552 14.3371 5.27427 13.6074C4.79288 12.8776 4.41198 12.1544 4.13156 11.4376C3.85115 10.7206 3.71094 10.0283 3.71094 9.36048C3.71094 7.43742 4.33295 5.88054 5.57698 4.68985C6.82115 3.49916 8.2958 2.90381 10.0009 2.90381C11.7061 2.90381 13.1807 3.49916 14.4249 4.68985C15.6689 5.88054 16.2909 7.43742 16.2909 9.36048C16.2909 10.0283 16.1507 10.7192 15.8703 11.4334C15.5899 12.1477 15.2104 12.871 14.7318 13.6034C14.253 14.3358 13.6878 15.0657 13.0361 15.7932C12.3845 16.5208 11.6847 17.2292 10.9368 17.9182C10.8073 18.0357 10.6602 18.1238 10.4953 18.1826C10.3306 18.2413 10.1658 18.2707 10.0009 18.2707ZM10.0024 10.7082C10.417 10.7082 10.7714 10.5605 11.0657 10.2653C11.3602 9.96999 11.5074 9.61506 11.5074 9.20048C11.5074 8.78589 11.3598 8.43138 11.0645 8.13693C10.7692 7.84263 10.4142 7.69548 9.99948 7.69548C9.5849 7.69548 9.23045 7.84311 8.93615 8.13839C8.6417 8.43367 8.49448 8.78867 8.49448 9.20339C8.49448 9.61798 8.64212 9.97242 8.9374 10.2667C9.23267 10.561 9.58767 10.7082 10.0024 10.7082Z" fill="#666666"/>
</svg>
