<svg width="166" height="32" viewBox="0 0 166 32" fill="none" xmlns="http://www.w3.org/2000/svg">
<path d="M1 1.41789L1.24459 1.25463C1.44841 1.12197 1.87643 1.10156 6.22802 1.10156L6.43184 1.37708C6.64585 1.66279 6.64585 1.71382 6.5847 30.8469H4.02675C1.60127 30.8469 1.44841 30.8366 1.02038 30.4387L1 1.41789Z" fill="#006CFF"/>
<path d="M75.1196 15.6936C75.3744 15.5609 75.833 15.3773 76.1387 15.2752C76.526 15.1528 77.0457 15.0915 77.8203 15.0813C78.6559 15.0813 79.1043 15.1324 79.6037 15.2752C79.9706 15.3875 80.5413 15.663 80.8776 15.8875C81.2139 16.112 81.6113 16.4487 81.754 16.6324C81.9069 16.8161 82.1718 17.265 82.3451 17.6324C82.5183 17.9997 82.6814 18.4998 82.712 18.7549C82.7425 19.01 82.7935 19.3671 82.8648 19.8773H79.6546L79.5935 19.4487C79.5629 19.2038 79.4508 18.8263 79.3387 18.6018C79.2368 18.3773 78.982 18.0916 78.7884 17.9589C78.5234 17.7855 78.289 17.7344 77.8712 17.7344C77.4941 17.7344 77.1986 17.8059 76.9744 17.9385C76.8012 18.0508 76.5566 18.2957 76.4343 18.4793C76.2712 18.7344 76.2406 18.9385 76.261 19.4385C76.2916 20.0202 76.3222 20.1018 76.6992 20.4896C76.9438 20.7447 77.4534 21.0814 77.9731 21.3263C78.4146 21.5332 79.1504 21.8875 79.6779 22.1415L79.8075 22.2039C80.582 22.5712 80.9183 22.8059 81.4992 23.3876C82.0394 23.9284 82.284 24.2651 82.4674 24.7243C82.6814 25.2651 82.712 25.4998 82.712 26.7141C82.712 28.0305 82.7018 28.1223 82.4164 28.704C82.2432 29.0407 81.8967 29.5203 81.6419 29.7754C81.3769 30.0305 80.9387 30.3468 80.6636 30.4795C80.3884 30.6224 79.9298 30.7856 79.6546 30.8673C79.3693 30.9387 78.6355 30.9999 78.0241 30.9999C77.3311 30.9999 76.6687 30.9387 76.2916 30.8366C75.9553 30.755 75.3642 30.5101 74.977 30.306C74.5591 30.0815 74.0903 29.7244 73.8152 29.4183C73.5706 29.1427 73.2445 28.6836 73.112 28.3978C72.9693 28.1223 72.7859 27.5917 72.7145 27.2244C72.633 26.857 72.5719 26.4386 72.5719 25.9998H75.833V26.3366C75.833 26.5101 75.8941 26.8978 75.9757 27.1733C76.0708 27.5135 76.2406 27.7958 76.4852 28.0203C76.6992 28.204 77.0152 28.3774 77.2292 28.408C77.4432 28.4489 77.8814 28.4591 78.1973 28.4387C78.6661 28.408 78.8292 28.3468 79.084 28.0917C79.298 27.8876 79.4305 27.6223 79.5018 27.2754C79.5629 26.9999 79.5731 26.6019 79.5425 26.408C79.5018 26.2141 79.4202 25.9386 79.3489 25.7958C79.2776 25.6529 79.0636 25.408 78.8699 25.2345C78.6865 25.0713 78.3706 24.8468 78.1769 24.7549C77.9833 24.6631 77.1986 24.2855 76.4445 23.9284C75.3846 23.4182 74.9158 23.1325 74.4164 22.6733C73.9477 22.2243 73.6725 21.8671 73.3973 21.3161C73.0406 20.5712 73.0305 20.5202 73.0305 19.4283C73.0305 18.4691 73.0712 18.2038 73.2852 17.6834C73.4483 17.2752 73.7133 16.8773 74.1005 16.4997C74.4062 16.1834 74.8649 15.8262 75.1196 15.6936Z" fill="#006CFF"/>
<path d="M1 1.41789L1.24459 1.25463C1.44841 1.12197 1.87643 1.10156 6.22802 1.10156L6.43184 1.37708C6.64585 1.66279 6.64585 1.71382 6.5847 30.8469H4.02675C1.60127 30.8469 1.44841 30.8366 1.02038 30.4387L1 1.41789Z" stroke="#333333" stroke-width="0.186304"/>
<path d="M75.1196 15.6936C75.3744 15.5609 75.833 15.3773 76.1387 15.2752C76.526 15.1528 77.0457 15.0915 77.8203 15.0813C78.6559 15.0813 79.1043 15.1324 79.6037 15.2752C79.9706 15.3875 80.5413 15.663 80.8776 15.8875C81.2139 16.112 81.6113 16.4487 81.754 16.6324C81.9069 16.8161 82.1718 17.265 82.3451 17.6324C82.5183 17.9997 82.6814 18.4998 82.712 18.7549C82.7425 19.01 82.7935 19.3671 82.8648 19.8773H79.6546L79.5935 19.4487C79.5629 19.2038 79.4508 18.8263 79.3387 18.6018C79.2368 18.3773 78.982 18.0916 78.7884 17.9589C78.5234 17.7855 78.289 17.7344 77.8712 17.7344C77.4941 17.7344 77.1986 17.8059 76.9744 17.9385C76.8012 18.0508 76.5566 18.2957 76.4343 18.4793C76.2712 18.7344 76.2406 18.9385 76.261 19.4385C76.2916 20.0202 76.3222 20.1018 76.6992 20.4896C76.9438 20.7447 77.4534 21.0814 77.9731 21.3263C78.4146 21.5332 79.1504 21.8875 79.6779 22.1415L79.8075 22.2039C80.582 22.5712 80.9183 22.8059 81.4992 23.3876C82.0394 23.9284 82.284 24.2651 82.4674 24.7243C82.6814 25.2651 82.712 25.4998 82.712 26.7141C82.712 28.0305 82.7018 28.1223 82.4164 28.704C82.2432 29.0407 81.8967 29.5203 81.6419 29.7754C81.3769 30.0305 80.9387 30.3468 80.6636 30.4795C80.3884 30.6224 79.9298 30.7856 79.6546 30.8673C79.3693 30.9387 78.6355 30.9999 78.0241 30.9999C77.3311 30.9999 76.6687 30.9387 76.2916 30.8366C75.9553 30.755 75.3642 30.5101 74.977 30.306C74.5591 30.0815 74.0903 29.7244 73.8152 29.4183C73.5706 29.1427 73.2445 28.6836 73.112 28.3978C72.9693 28.1223 72.7859 27.5917 72.7145 27.2244C72.633 26.857 72.5719 26.4386 72.5719 25.9998H75.833V26.3366C75.833 26.5101 75.8941 26.8978 75.9757 27.1733C76.0708 27.5135 76.2406 27.7958 76.4852 28.0203C76.6992 28.204 77.0152 28.3774 77.2292 28.408C77.4432 28.4489 77.8814 28.4591 78.1973 28.4387C78.6661 28.408 78.8292 28.3468 79.084 28.0917C79.298 27.8876 79.4305 27.6223 79.5018 27.2754C79.5629 26.9999 79.5731 26.6019 79.5425 26.408C79.5018 26.2141 79.4202 25.9386 79.3489 25.7958C79.2776 25.6529 79.0636 25.408 78.8699 25.2345C78.6865 25.0713 78.3706 24.8468 78.1769 24.7549C77.9833 24.6631 77.1986 24.2855 76.4445 23.9284C75.3846 23.4182 74.9158 23.1325 74.4164 22.6733C73.9477 22.2243 73.6725 21.8671 73.3973 21.3161C73.0406 20.5712 73.0305 20.5202 73.0305 19.4283C73.0305 18.4691 73.0712 18.2038 73.2852 17.6834C73.4483 17.2752 73.7133 16.8773 74.1005 16.4997C74.4062 16.1834 74.8649 15.8262 75.1196 15.6936Z" stroke="#333333" stroke-width="0.186304"/>
<path d="M14.5859 6.71432V3.90816V1.102H16.9299V6.71432H14.5859Z" fill="#345675"/>
<path d="M22.535 6.71432V3.90816V1.102L25.4394 1.0918L24.9299 1.63262V6.71432H22.535Z" fill="#345675"/>
<path d="M14.5859 6.71432V3.90816V1.102H16.9299V6.71432H14.5859Z" stroke="#333333" stroke-width="0.186304"/>
<path d="M22.535 6.71432V3.90816V1.102L25.4394 1.0918L24.9299 1.63262V6.71432H22.535Z" stroke="#333333" stroke-width="0.186304"/>
<path d="M92.2307 1.77552C92.4345 1.56123 92.7606 1.29592 92.9543 1.19388C93.1989 1.07143 93.5352 1.0102 94.0549 1C94.5848 1 94.9008 1.05102 95.1759 1.19388C95.3797 1.29592 95.6549 1.50001 95.7772 1.63266C95.8995 1.75511 96.0931 2.07144 96.195 2.32655C96.3071 2.58165 96.4294 2.97962 96.46 3.21432C96.5211 3.6531 96.5211 3.6531 96.195 3.6531C95.8689 3.6531 95.8587 3.63269 95.7364 3.07146C95.6549 2.6939 95.5122 2.36737 95.3288 2.16328C95.1759 1.98981 94.86 1.78572 94.6358 1.7143C94.3912 1.64287 94.0243 1.61225 93.7492 1.65307C93.4231 1.69389 93.1479 1.80613 92.9441 1.98981C92.7606 2.15308 92.5262 2.4592 92.4039 2.6837C92.2205 3.04084 92.1899 3.31636 92.1594 4.82658C92.1186 6.25517 92.1492 6.67354 92.2918 7.17355C92.4141 7.59192 92.5772 7.89805 92.8422 8.15316C93.1071 8.41847 93.3313 8.54092 93.6676 8.60214C93.953 8.64296 94.3097 8.62255 94.6256 8.53071C94.9313 8.44908 95.2167 8.28581 95.3696 8.12254C95.502 7.95928 95.6651 7.56131 95.7262 7.22457C95.8587 6.62252 95.8689 6.61232 96.1848 6.61232C96.5109 6.61232 96.5211 6.62252 96.46 6.98988C96.4294 7.20416 96.3479 7.56131 96.2867 7.7858C96.2256 8.0103 95.9912 8.37765 95.7568 8.60214C95.5326 8.82663 95.1657 9.07154 94.9415 9.14297C94.7173 9.20419 94.2791 9.26542 93.9734 9.26542C93.6473 9.26542 93.2396 9.18378 93.0052 9.07154C92.781 8.96949 92.4345 8.71439 92.2307 8.4899C92.0371 8.27561 91.7823 7.83683 91.6702 7.5307C91.5071 7.0511 91.4766 6.68375 91.4766 5.13271C91.4766 3.58167 91.5071 3.21432 91.6702 2.73472C91.7823 2.42859 92.0371 2.00001 92.2307 1.77552Z" fill="#333333" stroke="#333333" stroke-width="0.186304"/>
<path d="M6.58594 30.9082L6.61651 28.0408L6.64708 25.1836H14.5859V27.7551C14.5859 30.1428 14.5655 30.3571 14.1885 30.8469L6.58594 30.9082Z" fill="#5AB8FF" stroke="#333333" stroke-width="0.186304"/>
<path d="M8.99066 1.60157L9.23525 1.35667L9.47983 1.10156H14.5856V25.1835H8.98047L8.99066 1.60157Z" fill="#1F2E44"/>
<path d="M16.9805 30.4081L16.9499 15.7548L16.9295 1.10156H22.5346V15.6732C22.5448 30.1632 22.5448 30.2448 22.1269 30.7958L19.8136 30.806C17.6633 30.806 17.4696 30.7958 16.9805 30.4081Z" fill="#1F2E44"/>
<path d="M24.9193 1.63218L25.1741 1.36687L25.4187 1.11177L27.6709 1.10156C29.7702 1.10156 29.9333 1.11177 30.4734 1.51994V15.9589C30.4734 30.255 30.4734 30.3979 30.2696 30.602C30.0862 30.7856 29.9333 30.806 27.7218 30.806C25.5206 30.806 25.3677 30.7856 25.1741 30.602C25.062 30.4897 24.9499 30.2448 24.9193 30.0611C24.8887 29.8775 24.8785 23.408 24.9193 1.63218Z" fill="#1F2E44"/>
<path d="M8.99066 1.60157L9.23525 1.35667L9.47983 1.10156H14.5856V25.1835H8.98047L8.99066 1.60157Z" stroke="#333333" stroke-width="0.186304"/>
<path d="M16.9805 30.4081L16.9499 15.7548L16.9295 1.10156H22.5346V15.6732C22.5448 30.1632 22.5448 30.2448 22.1269 30.7958L19.8136 30.806C17.6633 30.806 17.4696 30.7958 16.9805 30.4081Z" stroke="#333333" stroke-width="0.186304"/>
<path d="M24.9193 1.63218L25.1741 1.36687L25.4187 1.11177L27.6709 1.10156C29.7702 1.10156 29.9333 1.11177 30.4734 1.51994V15.9589C30.4734 30.255 30.4734 30.3979 30.2696 30.602C30.0862 30.7856 29.9333 30.806 27.7218 30.806C25.5206 30.806 25.3677 30.7856 25.1741 30.602C25.062 30.4897 24.9499 30.2448 24.9193 30.0611C24.8887 29.8775 24.8785 23.408 24.9193 1.63218Z" stroke="#333333" stroke-width="0.186304"/>
<path fill-rule="evenodd" clip-rule="evenodd" d="M36.6992 15.3882H39.8584V28.2455H45.3616V30.7965H36.6992V15.3882ZM47.9094 15.3882H56.7756V17.9392H51.0686V21.6128H55.9603V24.0618H51.0686V28.2455H56.8775V30.7965H47.9094V15.3882ZM66.0903 15.4392L68.3119 22.4801C69.5348 26.3475 70.6253 29.8067 70.9412 30.7965H67.4762L67.3845 30.4598C67.3234 30.2863 67.1297 29.5925 66.61 27.7251L62.5336 27.7353L61.7081 30.7455L60.0062 30.7761C59.0686 30.7863 58.3043 30.7659 58.3145 30.7353C58.3145 30.6945 59.3743 27.2863 60.6584 23.1536C61.9527 19.0209 63.0227 15.5821 63.0431 15.5106C63.0839 15.4086 63.4508 15.3882 66.0903 15.4392ZM63.2368 24.9597C63.2062 25.0516 63.5221 25.0822 64.5718 25.0822C65.8355 25.0822 65.9476 25.072 65.9068 24.9087C65.8762 24.8067 65.5807 23.6434 65.2342 22.327C64.8979 21.0107 64.6024 19.8984 64.5922 19.8576C64.582 19.8168 64.2762 20.9189 63.9196 22.3066C63.5629 23.6944 63.2571 24.8883 63.2368 24.9597ZM85.5144 15.3882H94.3806V17.9392H88.6736V21.6128H93.5654V24.0618H88.6736V28.2455H94.4826V30.7965H85.5144V15.3882Z" fill="#006CFF" stroke="#333333" stroke-width="0.186304"/>
<path fill-rule="evenodd" clip-rule="evenodd" d="M98.4567 1.10156H99.8835C100.943 1.10156 101.412 1.14238 101.697 1.26483C101.901 1.34646 102.187 1.51994 102.309 1.64239C102.441 1.76484 102.645 2.05055 102.768 2.27505C102.92 2.57097 102.982 2.8771 102.982 3.39751C102.992 3.96895 102.941 4.21385 102.737 4.62202C102.594 4.90773 102.319 5.23427 102.105 5.38733C101.891 5.53019 101.728 5.69346 101.718 5.74448C101.718 5.7955 102.085 6.59143 103.348 9.16289L102.584 9.1731L100.954 5.7853L99.1701 5.7955V9.16289H98.4567V1.10156ZM99.1701 5.18325C100.79 5.18325 101.168 5.13223 101.463 4.99957C101.759 4.86692 101.932 4.69345 102.095 4.35671C102.238 4.0914 102.329 3.72405 102.329 3.44853C102.329 3.19343 102.238 2.79546 102.126 2.56077C101.973 2.23423 101.81 2.07096 101.483 1.9179C101.157 1.76484 100.831 1.71382 100.108 1.71382H99.1701V5.18325ZM104.979 1.10156H109.259V1.71382H105.692V4.67304H108.75V5.28529H105.692V8.55064H109.259V9.16289H104.979V1.10156ZM36.8008 5.48938H86.0236V6.20367H36.8008V5.48938ZM115.883 5.48938H165.106V6.20367H115.883V5.48938Z" fill="#333333" stroke="#333333" stroke-width="0.186304"/>
<path fill-rule="evenodd" clip-rule="evenodd" d="M102.227 15.3867H103.042C103.49 15.3867 103.857 15.3969 103.857 15.4173C103.857 15.4275 104.866 18.3765 106.099 21.9684C107.332 25.5603 108.372 28.5705 108.402 28.6522C108.453 28.7848 108.463 28.7848 108.545 28.6522C108.586 28.5705 109.656 25.5501 113.182 15.3867H114.762V30.795H113.488L113.569 24.295C113.61 20.7133 113.61 17.8255 113.569 17.8765C113.518 17.9275 112.479 20.8357 108.993 30.744H107.985L105.773 24.4684C104.55 21.0194 103.521 18.101 103.47 17.9887C103.409 17.8663 103.399 20.3765 103.5 30.795H102.227L102.227 15.3867ZM122.945 15.4377L125.37 23.0398C126.706 27.2236 127.806 30.6726 127.806 30.7236C127.806 30.7644 127.521 30.7848 126.532 30.744L125.207 26.5093H119.449L119.134 27.5603C118.96 28.1317 118.675 29.0807 118.165 30.744L117.534 30.7746C117.187 30.7848 116.902 30.7644 116.902 30.7236C116.902 30.6726 117.982 27.244 119.307 23.0909C120.632 18.9377 121.742 15.4989 121.763 15.4581C121.793 15.4173 122.069 15.3867 122.945 15.4377ZM121.029 21.4072C120.387 23.5092 119.857 25.2644 119.857 25.3154C119.857 25.3562 120.978 25.3868 122.354 25.3868C124.677 25.3868 124.851 25.3766 124.8 25.2133C124.779 25.1113 124.229 23.3051 123.577 21.2031C122.925 19.101 122.384 17.3561 122.374 17.3357C122.354 17.3153 122.313 17.3561 122.272 17.4377C122.232 17.5194 121.671 19.3051 121.029 21.4072ZM127.195 15.3867H137.284V16.5091H132.902V30.795H131.577V16.5091H127.195V15.3867ZM139.23 15.3765L142.053 15.4071C144.774 15.4479 144.897 15.4581 145.488 15.6928C145.814 15.8357 146.323 16.1622 146.609 16.4173C146.884 16.6724 147.241 17.1112 147.393 17.3867C147.546 17.6622 147.74 18.2132 147.821 18.601C147.913 18.9888 147.984 19.5704 147.984 19.8765C147.984 20.1827 147.913 20.7235 147.832 21.0806C147.75 21.4276 147.567 21.948 147.424 22.2235C147.281 22.5092 146.965 22.9378 146.711 23.1929C146.456 23.448 146.058 23.7541 145.814 23.8664C145.579 23.9888 145.376 24.0909 145.365 24.1011C145.345 24.1011 146.048 25.5705 146.914 27.3562C147.781 29.1317 148.494 30.6318 148.494 30.693C148.494 30.7542 148.219 30.7848 147.159 30.744L144.061 24.3562L140.545 24.3664V30.795H139.22L139.23 15.3765ZM140.545 23.2439L144.57 23.1929C145.426 22.7133 145.814 22.3868 146.007 22.1215C146.201 21.8766 146.425 21.4378 146.517 21.1521C146.639 20.7745 146.67 20.3765 146.639 19.6214C146.609 18.8561 146.537 18.5092 146.384 18.1928C146.262 17.9683 146.038 17.6316 145.875 17.4479C145.722 17.2642 145.335 16.9887 145.029 16.8357C144.489 16.5806 144.377 16.5602 142.512 16.5295L140.565 16.4887L140.545 23.2439ZM151.144 15.3867H152.367V30.795H151.144V15.3867ZM154.986 15.3867H156.494L158.226 18.55C159.174 20.2949 159.99 21.7235 160.03 21.7133C160.071 21.7133 160.876 20.2949 163.526 15.3969L165.004 15.3867L164.83 15.7234C164.739 15.9071 163.821 17.5704 162.782 19.4173C161.742 21.2745 160.876 22.846 160.856 22.9174C160.835 22.9888 161.783 24.7643 162.965 26.8664C164.137 28.9787 165.105 30.7236 165.105 30.744C165.105 30.7746 164.769 30.7848 163.628 30.744L161.865 27.5297C160.907 25.7644 160.071 24.3052 160.03 24.295C159.99 24.2745 159.154 25.7337 156.392 30.795H155.648C155.241 30.795 154.914 30.7848 154.904 30.7746C154.904 30.7542 155.872 29.0297 157.065 26.9174C158.247 24.8154 159.225 23.05 159.225 22.9888C159.225 22.9378 158.41 21.448 157.411 19.6724C156.423 17.9071 155.465 16.2234 155.302 15.9275L154.986 15.3867Z" fill="#1F2E44" stroke="#333333" stroke-width="0.186304"/>
</svg>
