<svg width="20" height="21" viewBox="0 0 20 21" fill="none" xmlns="http://www.w3.org/2000/svg">
<path d="M3.58849 17.0698C3.16752 17.0698 2.8112 16.924 2.51953 16.6323C2.22786 16.3407 2.08203 15.9843 2.08203 15.5634V6.07628C2.08203 5.65531 2.22786 5.29899 2.51953 5.00732C2.8112 4.71566 3.16752 4.56982 3.58849 4.56982H16.4089C16.8299 4.56982 17.1862 4.71566 17.4779 5.00732C17.7695 5.29899 17.9154 5.65531 17.9154 6.07628V15.5634C17.9154 15.9843 17.7695 16.3407 17.4779 16.6323C17.1862 16.924 16.8299 17.0698 16.4089 17.0698H3.58849ZM16.6654 7.0217L10.4041 11.0298C10.3401 11.0661 10.2738 11.0946 10.2054 11.1154C10.137 11.1363 10.0681 11.1467 9.9987 11.1467C9.92925 11.1467 9.86036 11.1363 9.79203 11.1154C9.72356 11.0946 9.65731 11.0661 9.59328 11.0298L3.33203 7.0217V15.5634C3.33203 15.6382 3.35606 15.6997 3.40411 15.7477C3.45217 15.7958 3.51363 15.8198 3.58849 15.8198H16.4089C16.4838 15.8198 16.5452 15.7958 16.5933 15.7477C16.6413 15.6997 16.6654 15.6382 16.6654 15.5634V7.0217ZM9.9987 9.98649L16.5372 5.81982H3.46016L9.9987 9.98649ZM3.33203 7.21399V6.26128V6.28607V6.25962V7.21399Z" fill="#666666"/>
</svg>
