<svg width="163" height="181" viewBox="0 0 163 181" fill="none" xmlns="http://www.w3.org/2000/svg">
<path d="M133.156 22.9409H55.9839C54.2549 22.9409 52.8633 21.5492 52.8633 19.8202V3.12063C52.8633 1.39163 54.2549 0 55.9839 0H133.156C134.885 0 136.277 1.39163 136.277 3.12063V19.8202C136.277 21.5492 134.885 22.9409 133.156 22.9409Z" fill="#345675"/>
<path d="M69.5624 122.674H52.8628C51.1338 122.674 49.7422 121.283 49.7422 119.554V3.16262C49.7422 1.43362 51.1338 0.0419922 52.8628 0.0419922H72.6831V119.554C72.6831 121.241 71.2493 122.674 69.5624 122.674Z" fill="#1B2E46"/>
<path d="M102.54 122.675H85.8823C84.1533 122.675 82.7617 121.283 82.7617 119.554V0H105.703V119.512C105.66 121.241 104.269 122.675 102.54 122.675Z" fill="#1B2E46"/>
<path d="M135.516 122.674H118.816C117.087 122.674 115.695 121.283 115.695 119.554V3.16262C115.695 1.43362 117.087 0.0419922 118.816 0.0419922H135.516C137.245 0.0419922 138.636 1.43362 138.636 3.16262V119.554C138.636 121.241 137.245 122.674 135.516 122.674Z" fill="#1B2E46"/>
<path d="M69.5634 122.675H19.8863C18.1573 122.675 16.7656 121.283 16.7656 119.554V102.855C16.7656 101.126 18.1573 99.7339 19.8863 99.7339H72.684V119.554C72.684 121.241 71.2924 122.675 69.5634 122.675Z" fill="#5AB8FF"/>
<path d="M39.6635 122.675H19.8433C18.1143 122.675 16.7227 121.283 16.7227 119.554V3.16287C16.7227 1.43387 18.1143 0.0422363 19.8433 0.0422363H36.5429C38.2719 0.0422363 39.6635 1.43387 39.6635 3.16287V122.675Z" fill="#006BFF"/>
<path d="M90.3299 148.951H86.3792V153.083H90.9243V153.824H85.582V143.643H90.8893V144.398H86.3792V148.209H90.3299V148.951Z" fill="black"/>
<path d="M80.8769 149.587H78.4994V153.824H77.6953V143.643H80.4853C81.413 143.643 82.1309 143.909 82.639 144.44C83.1518 144.967 83.4082 145.701 83.4082 146.643C83.4082 147.3 83.2497 147.878 82.9327 148.377C82.6157 148.871 82.1891 149.214 81.6531 149.405L83.7718 153.733V153.824H82.9187L80.8769 149.587ZM78.4994 148.846H80.6252C81.2265 148.846 81.7067 148.641 82.0656 148.23C82.4246 147.815 82.604 147.286 82.604 146.643C82.604 145.93 82.4176 145.377 82.0446 144.986C81.6717 144.594 81.1496 144.398 80.4783 144.398H78.4994V148.846Z" fill="black"/>
<path d="M75.7155 150.65C75.6409 151.792 75.3333 152.631 74.7925 153.167C74.2518 153.698 73.5036 153.964 72.5479 153.964C71.5643 153.964 70.7882 153.594 70.2194 152.852C69.6507 152.106 69.364 151.095 69.3594 149.818V147.608C69.3594 146.326 69.6484 145.321 70.2264 144.594C70.8091 143.867 71.604 143.503 72.6109 143.503C73.5619 143.503 74.2984 143.776 74.8205 144.322C75.3426 144.867 75.6409 145.704 75.7155 146.832H74.9044C74.8298 145.909 74.6107 145.249 74.2471 144.853C73.8882 144.457 73.3428 144.259 72.6109 144.259C71.8417 144.259 71.2427 144.545 70.8138 145.119C70.3849 145.692 70.1705 146.524 70.1705 147.615V149.797C70.1705 150.878 70.3779 151.72 70.7928 152.321C71.2077 152.922 71.7928 153.223 72.5479 153.223C73.3404 153.223 73.9138 153.025 74.2681 152.629C74.6224 152.232 74.8345 151.573 74.9044 150.65H75.7155Z" fill="black"/>
<path d="M66.5875 171.579H60.5699V176.651H67.6911V179.857H56.707V160.726H67.6649V163.945H60.5699V168.465H66.5875V171.579Z" fill="#006DFF"/>
<path d="M50.2548 174.837C50.2548 174.058 50.0533 173.471 49.6504 173.077C49.2562 172.674 48.5336 172.258 47.4825 171.829C45.5642 171.102 44.1846 170.252 43.3437 169.28C42.5028 168.299 42.0824 167.142 42.0824 165.811C42.0824 164.199 42.6517 162.907 43.7904 161.935C44.9379 160.954 46.3919 160.463 48.1525 160.463C49.3263 160.463 50.373 160.713 51.2927 161.212C52.2125 161.703 52.9176 162.399 53.4081 163.301C53.9074 164.204 54.157 165.228 54.157 166.376H50.3073C50.3073 165.482 50.1146 164.804 49.7292 164.339C49.3526 163.866 48.8051 163.63 48.0868 163.63C47.4124 163.63 46.8868 163.831 46.5102 164.234C46.1335 164.628 45.9452 165.163 45.9452 165.837C45.9452 166.363 46.1554 166.84 46.5759 167.269C46.9963 167.69 47.7409 168.128 48.8095 168.583C50.6752 169.258 52.0285 170.085 52.8694 171.066C53.7191 172.048 54.1439 173.296 54.1439 174.811C54.1439 176.475 53.6139 177.776 52.5541 178.713C51.4942 179.651 50.0533 180.119 48.2314 180.119C46.9963 180.119 45.8708 179.865 44.8547 179.357C43.8386 178.849 43.0415 178.122 42.4634 177.176C41.8941 176.23 41.6094 175.113 41.6094 173.826H45.4853C45.4853 174.929 45.6999 175.731 46.1292 176.23C46.5584 176.729 47.2591 176.979 48.2314 176.979C49.5803 176.979 50.2548 176.265 50.2548 174.837Z" fill="#006DFF"/>
<path d="M35.2235 175.941H29.9548L28.9299 179.856H24.8438L30.8219 160.726H34.3563L40.3739 179.856H36.2483L35.2235 175.941ZM30.7957 172.722H34.3694L32.5826 165.903L30.7957 172.722Z" fill="#006DFF"/>
<path d="M22.7554 171.579H16.7378V176.65H23.8591V179.856H12.875V160.726H23.8328V163.945H16.7378V168.465H22.7554V171.579Z" fill="#006DFF"/>
<path d="M3.86284 176.651H10.6425V179.857H0V160.726H3.86284V176.651Z" fill="#006DFF"/>
<path d="M155.557 168.794L159.959 160.726H161.745L156.477 170.16L161.903 179.857H160.103L155.557 171.54L150.998 179.857H149.211L154.664 170.16L149.369 160.726H151.155L155.557 168.794Z" fill="#1F2E44"/>
<path d="M145.572 179.857H144.074V160.726H145.572V179.857Z" fill="#1F2E44"/>
<path d="M134.955 171.894H130.488V179.857H128.977V160.726H134.219C135.962 160.726 137.311 161.226 138.266 162.224C139.229 163.214 139.711 164.594 139.711 166.363C139.711 167.598 139.413 168.684 138.818 169.621C138.222 170.55 137.42 171.194 136.413 171.553L140.394 179.686V179.857H138.791L134.955 171.894ZM130.488 170.502H134.482C135.612 170.502 136.514 170.116 137.188 169.345C137.863 168.566 138.2 167.572 138.2 166.363C138.2 165.023 137.85 163.985 137.149 163.249C136.448 162.513 135.467 162.145 134.206 162.145H130.488V170.502Z" fill="#1F2E44"/>
<path d="M125.916 162.145H120.476V179.857H118.965V162.145H113.539V160.726H125.916V162.145Z" fill="#1F2E44"/>
<path d="M110.609 174.509H103.435L101.806 179.857H100.242L106.339 160.726H107.731L113.828 179.857H112.264L110.609 174.509ZM103.869 173.103H110.175L107.022 162.842L103.869 173.103Z" fill="#1F2E44"/>
<path d="M83.5308 160.726L89.3251 177.557L95.1456 160.726H97.1296V179.857H95.6318V171.566L95.7632 163.223L89.9032 179.857H88.747L82.9133 163.302L83.0447 171.513V179.857H81.5469V160.726H83.5308Z" fill="#1F2E44"/>
<path d="M162.718 150.043H100.348V150.887H162.718V150.043Z" fill="black"/>
<path d="M62.433 150.043H0.0625V150.887H62.433V150.043Z" fill="black"/>
</svg>
